<?xml version="1.0" encoding="UTF-8" standalone="no"?>
<!DOCTYPE svg PUBLIC "-//W3C//DTD SVG 1.1//EN"
 "http://www.w3.org/Graphics/SVG/1.1/DTD/svg11.dtd">
<!-- Generated by graphviz version 2.43.0 (0)
 -->
<!-- Title: cryptolib/aes/aes_types.h Pages: 1 -->
<svg width="520pt" height="196pt"
 viewBox="0.00 0.00 520.00 196.00" xmlns="http://www.w3.org/2000/svg" xmlns:xlink="http://www.w3.org/1999/xlink">
<g id="graph0" class="graph" transform="scale(1 1) rotate(0) translate(4 192)">
<title>cryptolib/aes/aes_types.h</title>
<!-- Node1 -->
<g id="node1" class="node">
<title>Node1</title>
<g id="a_node1"><a xlink:title=" ">
<polygon fill="#bfbfbf" stroke="black" points="136,-168.5 136,-187.5 277,-187.5 277,-168.5 136,-168.5"/>
<text text-anchor="middle" x="206.5" y="-175.5" font-family="Helvetica,sans-Serif" font-size="10.00">cryptolib/aes/aes_types.h</text>
</a>
</g>
</g>
<!-- Node2 -->
<g id="node2" class="node">
<title>Node2</title>
<g id="a_node2"><a xlink:href="aes_8h.html" target="_top" xlink:title=" ">
<polygon fill="none" stroke="black" points="116,-56.5 116,-75.5 225,-75.5 225,-56.5 116,-56.5"/>
<text text-anchor="middle" x="170.5" y="-63.5" font-family="Helvetica,sans-Serif" font-size="10.00">cryptolib/aes/aes.h</text>
</a>
</g>
</g>
<!-- Node1&#45;&gt;Node2 -->
<g id="edge1" class="edge">
<title>Node1&#45;&gt;Node2</title>
<path fill="none" stroke="midnightblue" d="M193.55,-160.12C188.01,-152.04 182.02,-141.96 178.5,-132 171.68,-112.7 170.5,-88.41 170.39,-75.68"/>
<polygon fill="midnightblue" stroke="midnightblue" points="190.76,-162.24 199.46,-168.29 196.44,-158.14 190.76,-162.24"/>
</g>
<!-- Node6 -->
<g id="node6" class="node">
<title>Node6</title>
<g id="a_node6"><a xlink:href="aes__dec_8h.html" target="_top" xlink:title=" ">
<polygon fill="none" stroke="black" points="0,-112.5 0,-131.5 131,-131.5 131,-112.5 0,-112.5"/>
<text text-anchor="middle" x="65.5" y="-119.5" font-family="Helvetica,sans-Serif" font-size="10.00">cryptolib/aes/aes_dec.h</text>
</a>
</g>
</g>
<!-- Node1&#45;&gt;Node6 -->
<g id="edge5" class="edge">
<title>Node1&#45;&gt;Node6</title>
<path fill="none" stroke="midnightblue" d="M174.57,-164.77C148.09,-154.63 111.11,-140.47 87.74,-131.52"/>
<polygon fill="midnightblue" stroke="midnightblue" points="173.57,-168.14 184.16,-168.44 176.07,-161.6 173.57,-168.14"/>
</g>
<!-- Node7 -->
<g id="node7" class="node">
<title>Node7</title>
<g id="a_node7"><a xlink:href="aes__enc_8h.html" target="_top" xlink:title=" ">
<polygon fill="none" stroke="black" points="188,-112.5 188,-131.5 319,-131.5 319,-112.5 188,-112.5"/>
<text text-anchor="middle" x="253.5" y="-119.5" font-family="Helvetica,sans-Serif" font-size="10.00">cryptolib/aes/aes_enc.h</text>
</a>
</g>
</g>
<!-- Node1&#45;&gt;Node7 -->
<g id="edge8" class="edge">
<title>Node1&#45;&gt;Node7</title>
<path fill="none" stroke="midnightblue" d="M220.92,-160.43C229.16,-150.97 239.15,-139.48 245.88,-131.75"/>
<polygon fill="midnightblue" stroke="midnightblue" points="218.19,-158.24 214.26,-168.08 223.47,-162.84 218.19,-158.24"/>
</g>
<!-- Node8 -->
<g id="node8" class="node">
<title>Node8</title>
<g id="a_node8"><a xlink:href="aes__keyschedule_8h.html" target="_top" xlink:title=" ">
<polygon fill="none" stroke="black" points="337,-112.5 337,-131.5 512,-131.5 512,-112.5 337,-112.5"/>
<text text-anchor="middle" x="424.5" y="-119.5" font-family="Helvetica,sans-Serif" font-size="10.00">cryptolib/aes/aes_keyschedule.h</text>
</a>
</g>
</g>
<!-- Node1&#45;&gt;Node8 -->
<g id="edge11" class="edge">
<title>Node1&#45;&gt;Node8</title>
<path fill="none" stroke="midnightblue" d="M250.81,-166.02C291.99,-155.82 352.47,-140.84 390.12,-131.52"/>
<polygon fill="midnightblue" stroke="midnightblue" points="249.91,-162.64 241.04,-168.44 251.59,-169.44 249.91,-162.64"/>
</g>
<!-- Node3 -->
<g id="node3" class="node">
<title>Node3</title>
<g id="a_node3"><a xlink:href="aes__dec_8c_source.html" target="_top" xlink:title=" ">
<polygon fill="none" stroke="black" points="25,-0.5 25,-19.5 156,-19.5 156,-0.5 25,-0.5"/>
<text text-anchor="middle" x="90.5" y="-7.5" font-family="Helvetica,sans-Serif" font-size="10.00">cryptolib/aes/aes_dec.c</text>
</a>
</g>
</g>
<!-- Node2&#45;&gt;Node3 -->
<g id="edge2" class="edge">
<title>Node2&#45;&gt;Node3</title>
<path fill="none" stroke="midnightblue" d="M149.2,-50.62C134.58,-40.76 115.67,-27.99 103.32,-19.65"/>
<polygon fill="midnightblue" stroke="midnightblue" points="147.4,-53.63 157.65,-56.32 151.32,-47.83 147.4,-53.63"/>
</g>
<!-- Node4 -->
<g id="node4" class="node">
<title>Node4</title>
<g id="a_node4"><a xlink:href="aes__enc_8c.html" target="_top" xlink:title=" ">
<polygon fill="none" stroke="black" points="181,-0.5 181,-19.5 312,-19.5 312,-0.5 181,-0.5"/>
<text text-anchor="middle" x="246.5" y="-7.5" font-family="Helvetica,sans-Serif" font-size="10.00">cryptolib/aes/aes_enc.c</text>
</a>
</g>
</g>
<!-- Node2&#45;&gt;Node4 -->
<g id="edge3" class="edge">
<title>Node2&#45;&gt;Node4</title>
<path fill="none" stroke="midnightblue" d="M191.08,-50.38C204.81,-40.62 222.43,-28.11 234.07,-19.83"/>
<polygon fill="midnightblue" stroke="midnightblue" points="188.84,-47.68 182.71,-56.32 192.89,-53.38 188.84,-47.68"/>
</g>
<!-- Node5 -->
<g id="node5" class="node">
<title>Node5</title>
<g id="a_node5"><a xlink:href="aes__keyschedule_8c.html" target="_top" xlink:title=" ">
<polygon fill="none" stroke="black" points="333.5,-0.5 333.5,-19.5 507.5,-19.5 507.5,-0.5 333.5,-0.5"/>
<text text-anchor="middle" x="420.5" y="-7.5" font-family="Helvetica,sans-Serif" font-size="10.00">cryptolib/aes/aes_keyschedule.c</text>
</a>
</g>
</g>
<!-- Node2&#45;&gt;Node5 -->
<g id="edge4" class="edge">
<title>Node2&#45;&gt;Node5</title>
<path fill="none" stroke="midnightblue" d="M220.12,-54.28C267.37,-44.08 337.54,-28.92 381.07,-19.52"/>
<polygon fill="midnightblue" stroke="midnightblue" points="219.15,-50.91 210.11,-56.44 220.63,-57.75 219.15,-50.91"/>
</g>
<!-- Node6&#45;&gt;Node2 -->
<g id="edge6" class="edge">
<title>Node6&#45;&gt;Node2</title>
<path fill="none" stroke="midnightblue" d="M91.31,-107.73C110.75,-97.73 136.85,-84.31 153.67,-75.65"/>
<polygon fill="midnightblue" stroke="midnightblue" points="89.66,-104.64 82.37,-112.32 92.86,-110.86 89.66,-104.64"/>
</g>
<!-- Node6&#45;&gt;Node3 -->
<g id="edge7" class="edge">
<title>Node6&#45;&gt;Node3</title>
<path fill="none" stroke="midnightblue" d="M69.74,-102.35C75.22,-78.25 84.52,-37.31 88.55,-19.59"/>
<polygon fill="midnightblue" stroke="midnightblue" points="66.27,-101.84 67.46,-112.37 73.09,-103.39 66.27,-101.84"/>
</g>
<!-- Node7&#45;&gt;Node2 -->
<g id="edge9" class="edge">
<title>Node7&#45;&gt;Node2</title>
<path fill="none" stroke="midnightblue" d="M231.4,-106.62C216.24,-96.76 196.62,-83.99 183.8,-75.65"/>
<polygon fill="midnightblue" stroke="midnightblue" points="229.87,-109.8 240.16,-112.32 233.69,-103.94 229.87,-109.8"/>
</g>
<!-- Node7&#45;&gt;Node4 -->
<g id="edge10" class="edge">
<title>Node7&#45;&gt;Node4</title>
<path fill="none" stroke="midnightblue" d="M252.31,-102.35C250.78,-78.25 248.17,-37.31 247.05,-19.59"/>
<polygon fill="midnightblue" stroke="midnightblue" points="248.82,-102.61 252.95,-112.37 255.81,-102.17 248.82,-102.61"/>
</g>
<!-- Node8&#45;&gt;Node2 -->
<g id="edge12" class="edge">
<title>Node8&#45;&gt;Node2</title>
<path fill="none" stroke="midnightblue" d="M374.38,-110.35C326.38,-100.14 254.88,-84.94 210.56,-75.52"/>
<polygon fill="midnightblue" stroke="midnightblue" points="373.74,-113.79 384.25,-112.44 375.2,-106.94 373.74,-113.79"/>
</g>
<!-- Node8&#45;&gt;Node5 -->
<g id="edge13" class="edge">
<title>Node8&#45;&gt;Node5</title>
<path fill="none" stroke="midnightblue" d="M423.82,-102.35C422.95,-78.25 421.46,-37.31 420.81,-19.59"/>
<polygon fill="midnightblue" stroke="midnightblue" points="420.32,-102.5 424.19,-112.37 427.32,-102.25 420.32,-102.5"/>
</g>
</g>
</svg>
