<?xml version="1.0" encoding="UTF-8" standalone="no"?>
<!DOCTYPE svg PUBLIC "-//W3C//DTD SVG 1.1//EN"
 "http://www.w3.org/Graphics/SVG/1.1/DTD/svg11.dtd">
<!-- Generated by graphviz version 2.43.0 (0)
 -->
<!-- Title: cryptolib/aes/aes_keyschedule.c Pages: 1 -->
<!--zoomable 252 -->
<svg id="main" version="1.1" xmlns="http://www.w3.org/2000/svg" xmlns:xlink="http://www.w3.org/1999/xlink" xml:space="preserve" onload="init(evt)">
<style type="text/css"><![CDATA[
.edge:hover path { stroke: red; }
.edge:hover polygon { stroke: red; fill: red; }
]]></style>
<script type="text/javascript"><![CDATA[
var edges = document.getElementsByTagName('g');
if (edges && edges.length) {
  for (var i=0;i<edges.length;i++) {
    if (edges[i].id.substr(0,4)=='edge') {
      edges[i].setAttribute('class','edge');
    }
  }
}
]]></script>
        <defs>
                <circle id="rim" cx="0" cy="0" r="7"/>
                <circle id="rim2" cx="0" cy="0" r="3.5"/>
                <g id="zoomPlus">
                        <use xlink:href="#rim" fill="#404040">
                                <set attributeName="fill" to="#808080" begin="zoomplus.mouseover" end="zoomplus.mouseout"/>
                        </use>
                        <path d="M-4,0h8M0,-4v8" fill="none" stroke="white" stroke-width="1.5" pointer-events="none"/>
                </g>
                <g id="zoomMin">
                        <use xlink:href="#rim" fill="#404040">
                                <set attributeName="fill" to="#808080" begin="zoomminus.mouseover" end="zoomminus.mouseout"/>
                        </use>
                        <path d="M-4,0h8" fill="none" stroke="white" stroke-width="1.5" pointer-events="none"/>
                </g>
                <g id="dirArrow">
                        <path fill="none" stroke="white" stroke-width="1.5" d="M0,-3.0v7 M-2.5,-0.5L0,-3.0L2.5,-0.5"/>
                </g>
               <g id="resetDef">
                       <use xlink:href="#rim2" fill="#404040">
                               <set attributeName="fill" to="#808080" begin="reset.mouseover" end="reset.mouseout"/>
                       </use>
               </g>
        </defs>

<script type="text/javascript">
var viewWidth = 516;
var viewHeight = 252;
var sectionId = 'dynsection-0';
</script>
<script xlink:href="svgpan.js"/>
<svg id="graph" class="graph">
<g id="viewport">
<title>cryptolib/aes/aes_keyschedule.c</title>
<!-- Node1 -->
<g id="node1" class="node">
<title>Node1</title>
<g id="a_node1"><a xlink:title=" ">
<polygon fill="#bfbfbf" stroke="black" points="234.55,-224.5 234.55,-243.5 408.55,-243.5 408.55,-224.5 234.55,-224.5"/>
<text text-anchor="middle" x="321.55" y="-231.5" font-family="Helvetica,sans-Serif" font-size="10.00">cryptolib/aes/aes_keyschedule.c</text>
</a>
</g>
</g>
<!-- Node2 -->
<g id="node2" class="node">
<title>Node2</title>
<g id="a_node2"><a xlink:title=" ">
<polygon fill="none" stroke="#bfbfbf" points="59.05,-0.5 59.05,-19.5 112.05,-19.5 112.05,-0.5 59.05,-0.5"/>
<text text-anchor="middle" x="85.55" y="-7.5" font-family="Helvetica,sans-Serif" font-size="10.00">stdint.h</text>
</a>
</g>
</g>
<!-- Node1&#45;&gt;Node2 -->
<g id="edge1" class="edge">
<title>Node1&#45;&gt;Node2</title>
<path fill="none" stroke="midnightblue" d="M268.43,-224.48C185.72,-209.93 32.72,-177.4 4.55,-132 -5.91,-115.14 4.45,-73.61 16.55,-56 26.03,-42.21 41.25,-31.62 54.99,-24.2"/>
<polygon fill="midnightblue" stroke="midnightblue" points="56.83,-27.19 64.18,-19.56 53.68,-20.94 56.83,-27.19"/>
</g>
<!-- Node3 -->
<g id="node3" class="node">
<title>Node3</title>
<g id="a_node3"><a xlink:href="aes_8h.html" target="_top" xlink:title=" ">
<polygon fill="none" stroke="black" points="127.05,-168.5 127.05,-187.5 170.05,-187.5 170.05,-168.5 127.05,-168.5"/>
<text text-anchor="middle" x="148.55" y="-175.5" font-family="Helvetica,sans-Serif" font-size="10.00">aes.h</text>
</a>
</g>
</g>
<!-- Node1&#45;&gt;Node3 -->
<g id="edge2" class="edge">
<title>Node1&#45;&gt;Node3</title>
<path fill="none" stroke="midnightblue" d="M294.14,-224.44C263.1,-214.76 212.63,-199 180.01,-188.82"/>
<polygon fill="midnightblue" stroke="midnightblue" points="180.68,-185.36 170.1,-185.73 178.6,-192.05 180.68,-185.36"/>
</g>
<!-- Node7 -->
<g id="node7" class="node">
<title>Node7</title>
<g id="a_node7"><a xlink:href="aes__keyschedule_8h.html" target="_top" xlink:title=" ">
<polygon fill="none" stroke="black" points="230.05,-112.5 230.05,-131.5 339.05,-131.5 339.05,-112.5 230.05,-112.5"/>
<text text-anchor="middle" x="284.55" y="-119.5" font-family="Helvetica,sans-Serif" font-size="10.00">aes_keyschedule.h</text>
</a>
</g>
</g>
<!-- Node1&#45;&gt;Node7 -->
<g id="edge14" class="edge">
<title>Node1&#45;&gt;Node7</title>
<path fill="none" stroke="midnightblue" d="M318.65,-224.37C312.65,-206.54 298.78,-165.3 290.7,-141.27"/>
<polygon fill="midnightblue" stroke="midnightblue" points="293.95,-139.95 287.44,-131.59 287.31,-142.19 293.95,-139.95"/>
</g>
<!-- Node8 -->
<g id="node8" class="node">
<title>Node8</title>
<g id="a_node8"><a xlink:href="aes__sbox_8h.html" target="_top" xlink:title=" ">
<polygon fill="none" stroke="black" points="327.05,-168.5 327.05,-187.5 398.05,-187.5 398.05,-168.5 327.05,-168.5"/>
<text text-anchor="middle" x="362.55" y="-175.5" font-family="Helvetica,sans-Serif" font-size="10.00">aes_sbox.h</text>
</a>
</g>
</g>
<!-- Node1&#45;&gt;Node8 -->
<g id="edge15" class="edge">
<title>Node1&#45;&gt;Node8</title>
<path fill="none" stroke="midnightblue" d="M328.32,-224.08C334.11,-216.46 342.61,-205.26 349.69,-195.94"/>
<polygon fill="midnightblue" stroke="midnightblue" points="352.65,-197.83 355.91,-187.75 347.07,-193.6 352.65,-197.83"/>
</g>
<!-- Node9 -->
<g id="node9" class="node">
<title>Node9</title>
<g id="a_node9"><a xlink:title=" ">
<polygon fill="none" stroke="#bfbfbf" points="395.55,-112.5 395.55,-131.5 501.55,-131.5 501.55,-112.5 395.55,-112.5"/>
<text text-anchor="middle" x="448.55" y="-119.5" font-family="Helvetica,sans-Serif" font-size="10.00">platform/romem.h</text>
</a>
</g>
</g>
<!-- Node1&#45;&gt;Node9 -->
<g id="edge19" class="edge">
<title>Node1&#45;&gt;Node9</title>
<path fill="none" stroke="midnightblue" d="M345.52,-224.45C364.04,-216.97 389.47,-204.68 407.55,-188 422.07,-174.61 433.51,-154.96 440.57,-140.78"/>
<polygon fill="midnightblue" stroke="midnightblue" points="443.81,-142.12 444.93,-131.58 437.49,-139.12 443.81,-142.12"/>
</g>
<!-- Node10 -->
<g id="node10" class="node">
<title>Node10</title>
<g id="a_node10"><a xlink:title=" ">
<polygon fill="none" stroke="#bfbfbf" points="455.05,-168.5 455.05,-187.5 508.05,-187.5 508.05,-168.5 455.05,-168.5"/>
<text text-anchor="middle" x="481.55" y="-175.5" font-family="Helvetica,sans-Serif" font-size="10.00">string.h</text>
</a>
</g>
</g>
<!-- Node1&#45;&gt;Node10 -->
<g id="edge18" class="edge">
<title>Node1&#45;&gt;Node10</title>
<path fill="none" stroke="midnightblue" d="M346.9,-224.44C373.82,-215.36 416.55,-200.94 446.64,-190.78"/>
<polygon fill="midnightblue" stroke="midnightblue" points="447.96,-194.03 456.32,-187.52 445.72,-187.4 447.96,-194.03"/>
</g>
<!-- Node3&#45;&gt;Node2 -->
<g id="edge3" class="edge">
<title>Node3&#45;&gt;Node2</title>
<path fill="none" stroke="midnightblue" d="M126.85,-176.87C96.18,-175.37 41.05,-167.55 15.55,-132 -10.46,-95.74 37,-49.16 65.81,-25.78"/>
<polygon fill="midnightblue" stroke="midnightblue" points="68.01,-28.5 73.71,-19.56 63.68,-22.99 68.01,-28.5"/>
</g>
<!-- Node4 -->
<g id="node4" class="node">
<title>Node4</title>
<g id="a_node4"><a xlink:href="aes__types_8h.html" target="_top" xlink:title=" ">
<polygon fill="none" stroke="black" points="81.05,-56.5 81.05,-75.5 156.05,-75.5 156.05,-56.5 81.05,-56.5"/>
<text text-anchor="middle" x="118.55" y="-63.5" font-family="Helvetica,sans-Serif" font-size="10.00">aes_types.h</text>
</a>
</g>
</g>
<!-- Node3&#45;&gt;Node4 -->
<g id="edge4" class="edge">
<title>Node3&#45;&gt;Node4</title>
<path fill="none" stroke="midnightblue" d="M146.2,-168.37C141.33,-150.54 130.09,-109.3 123.53,-85.27"/>
<polygon fill="midnightblue" stroke="midnightblue" points="126.9,-84.32 120.89,-75.59 120.15,-86.16 126.9,-84.32"/>
</g>
<!-- Node5 -->
<g id="node5" class="node">
<title>Node5</title>
<g id="a_node5"><a xlink:href="aes__enc_8h.html" target="_top" xlink:title=" ">
<polygon fill="none" stroke="black" points="25.05,-112.5 25.05,-131.5 90.05,-131.5 90.05,-112.5 25.05,-112.5"/>
<text text-anchor="middle" x="57.55" y="-119.5" font-family="Helvetica,sans-Serif" font-size="10.00">aes_enc.h</text>
</a>
</g>
</g>
<!-- Node3&#45;&gt;Node5 -->
<g id="edge6" class="edge">
<title>Node3&#45;&gt;Node5</title>
<path fill="none" stroke="midnightblue" d="M133.93,-168.32C119.6,-159.82 97.54,-146.73 80.8,-136.8"/>
<polygon fill="midnightblue" stroke="midnightblue" points="82.52,-133.75 72.14,-131.65 78.95,-139.77 82.52,-133.75"/>
</g>
<!-- Node6 -->
<g id="node6" class="node">
<title>Node6</title>
<g id="a_node6"><a xlink:href="aes__dec_8h.html" target="_top" xlink:title=" ">
<polygon fill="none" stroke="black" points="147.05,-112.5 147.05,-131.5 212.05,-131.5 212.05,-112.5 147.05,-112.5"/>
<text text-anchor="middle" x="179.55" y="-119.5" font-family="Helvetica,sans-Serif" font-size="10.00">aes_dec.h</text>
</a>
</g>
</g>
<!-- Node3&#45;&gt;Node6 -->
<g id="edge9" class="edge">
<title>Node3&#45;&gt;Node6</title>
<path fill="none" stroke="midnightblue" d="M153.67,-168.08C157.96,-160.61 164.21,-149.72 169.49,-140.52"/>
<polygon fill="midnightblue" stroke="midnightblue" points="172.58,-142.17 174.53,-131.75 166.51,-138.68 172.58,-142.17"/>
</g>
<!-- Node3&#45;&gt;Node7 -->
<g id="edge12" class="edge">
<title>Node3&#45;&gt;Node7</title>
<path fill="none" stroke="midnightblue" d="M170.1,-168.44C192.58,-159.52 228.04,-145.44 253.53,-135.32"/>
<polygon fill="midnightblue" stroke="midnightblue" points="255.1,-138.46 263.1,-131.52 252.52,-131.95 255.1,-138.46"/>
</g>
<!-- Node4&#45;&gt;Node2 -->
<g id="edge5" class="edge">
<title>Node4&#45;&gt;Node2</title>
<path fill="none" stroke="midnightblue" d="M113.1,-56.08C108.54,-48.61 101.88,-37.72 96.26,-28.52"/>
<polygon fill="midnightblue" stroke="midnightblue" points="99.1,-26.46 90.9,-19.75 93.13,-30.11 99.1,-26.46"/>
</g>
<!-- Node5&#45;&gt;Node2 -->
<g id="edge8" class="edge">
<title>Node5&#45;&gt;Node2</title>
<path fill="none" stroke="midnightblue" d="M59.2,-112.11C61.6,-99.54 66.33,-75.87 71.55,-56 73.89,-47.09 76.88,-37.3 79.5,-29.14"/>
<polygon fill="midnightblue" stroke="midnightblue" points="82.85,-30.15 82.64,-19.56 76.2,-27.98 82.85,-30.15"/>
</g>
<!-- Node5&#45;&gt;Node4 -->
<g id="edge7" class="edge">
<title>Node5&#45;&gt;Node4</title>
<path fill="none" stroke="midnightblue" d="M67.35,-112.32C76.37,-104.34 89.96,-92.31 100.87,-82.65"/>
<polygon fill="midnightblue" stroke="midnightblue" points="103.4,-85.08 108.57,-75.83 98.76,-79.84 103.4,-85.08"/>
</g>
<!-- Node6&#45;&gt;Node2 -->
<g id="edge11" class="edge">
<title>Node6&#45;&gt;Node2</title>
<path fill="none" stroke="midnightblue" d="M179.67,-112.08C179.41,-98.63 177.14,-72.91 164.55,-56 153.7,-41.43 136.64,-30.86 121.14,-23.64"/>
<polygon fill="midnightblue" stroke="midnightblue" points="122.33,-20.35 111.76,-19.58 119.54,-26.77 122.33,-20.35"/>
</g>
<!-- Node6&#45;&gt;Node4 -->
<g id="edge10" class="edge">
<title>Node6&#45;&gt;Node4</title>
<path fill="none" stroke="midnightblue" d="M169.75,-112.32C160.73,-104.34 147.14,-92.31 136.23,-82.65"/>
<polygon fill="midnightblue" stroke="midnightblue" points="138.34,-79.84 128.53,-75.83 133.7,-85.08 138.34,-79.84"/>
</g>
<!-- Node7&#45;&gt;Node4 -->
<g id="edge13" class="edge">
<title>Node7&#45;&gt;Node4</title>
<path fill="none" stroke="midnightblue" d="M258.25,-112.44C230.2,-103.32 185.61,-88.81 154.37,-78.65"/>
<polygon fill="midnightblue" stroke="midnightblue" points="155.32,-75.28 144.73,-75.52 153.16,-81.94 155.32,-75.28"/>
</g>
<!-- Node8&#45;&gt;Node2 -->
<g id="edge16" class="edge">
<title>Node8&#45;&gt;Node2</title>
<path fill="none" stroke="midnightblue" d="M362.97,-168.29C363.16,-154.63 361.52,-128.09 347.55,-112 288.74,-44.24 179.07,-21.71 122.07,-14.39"/>
<polygon fill="midnightblue" stroke="midnightblue" points="122.41,-10.91 112.07,-13.2 121.58,-17.86 122.41,-10.91"/>
</g>
<!-- Node8&#45;&gt;Node9 -->
<g id="edge17" class="edge">
<title>Node8&#45;&gt;Node9</title>
<path fill="none" stroke="midnightblue" d="M376.37,-168.32C389.78,-159.9 410.37,-146.97 426.14,-137.07"/>
<polygon fill="midnightblue" stroke="midnightblue" points="428.16,-139.94 434.77,-131.65 424.44,-134.01 428.16,-139.94"/>
</g>
</g>
</svg>
        <g id="navigator" transform="translate(0 0)" fill="#404254">
                <rect fill="#f2f5e9" fill-opacity="0.5" stroke="#606060" stroke-width=".5" x="0" y="0" width="60" height="60"/>
                <use id="zoomplus" xlink:href="#zoomPlus" x="17" y="9" onmousedown="handleZoom(evt,'in')"/>
                <use id="zoomminus" xlink:href="#zoomMin" x="42" y="9" onmousedown="handleZoom(evt,'out')"/>
                <use id="reset" xlink:href="#resetDef" x="30" y="36" onmousedown="handleReset()"/>
                <g id="arrowUp" xlink:href="#dirArrow" transform="translate(30 24)" onmousedown="handlePan(0,-1)">
                  <use xlink:href="#rim" fill="#404040">
                        <set attributeName="fill" to="#808080" begin="arrowUp.mouseover" end="arrowUp.mouseout"/>
                  </use>
                  <path fill="none" stroke="white" stroke-width="1.5" d="M0,-3.0v7 M-2.5,-0.5L0,-3.0L2.5,-0.5"/>
                </g>
                <g id="arrowRight" xlink:href="#dirArrow" transform="rotate(90) translate(36 -43)" onmousedown="handlePan(1,0)">
                  <use xlink:href="#rim" fill="#404040">
                        <set attributeName="fill" to="#808080" begin="arrowRight.mouseover" end="arrowRight.mouseout"/>
                  </use>
                  <path fill="none" stroke="white" stroke-width="1.5" d="M0,-3.0v7 M-2.5,-0.5L0,-3.0L2.5,-0.5"/>
                </g>
                <g id="arrowDown" xlink:href="#dirArrow" transform="rotate(180) translate(-30 -48)" onmousedown="handlePan(0,1)">
                  <use xlink:href="#rim" fill="#404040">
                        <set attributeName="fill" to="#808080" begin="arrowDown.mouseover" end="arrowDown.mouseout"/>
                  </use>
                  <path fill="none" stroke="white" stroke-width="1.5" d="M0,-3.0v7 M-2.5,-0.5L0,-3.0L2.5,-0.5"/>
                </g>
                <g id="arrowLeft" xlink:href="#dirArrow" transform="rotate(270) translate(-36 17)" onmousedown="handlePan(-1,0)">
                  <use xlink:href="#rim" fill="#404040">
                        <set attributeName="fill" to="#808080" begin="arrowLeft.mouseover" end="arrowLeft.mouseout"/>
                  </use>
                  <path fill="none" stroke="white" stroke-width="1.5" d="M0,-3.0v7 M-2.5,-0.5L0,-3.0L2.5,-0.5"/>
                </g>
        </g>
        <svg viewBox="0 0 15 15" width="100%" height="30px" preserveAspectRatio="xMaxYMin meet">
         <g id="arrow_out" transform="scale(0.3 0.3)">
          <a xlink:href="aes__keyschedule_8c__incl_org.svg" target="_base">
           <rect id="button" ry="5" rx="5" y="6" x="6" height="38" width="38"
                fill="#f2f5e9" fill-opacity="0.5" stroke="#606060" stroke-width="1.0"/>
           <path id="arrow"
             d="M 11.500037,31.436501 C 11.940474,20.09759 22.043105,11.32322 32.158766,21.979434 L 37.068811,17.246167 C 37.068811,17.246167 37.088388,32 37.088388,32 L 22.160133,31.978069 C 22.160133,31.978069 26.997745,27.140456 26.997745,27.140456 C 18.528582,18.264221 13.291696,25.230495 11.500037,31.436501 z"
             style="fill:#404040;"/>
          </a>
         </g>
        </svg>
</svg>
