<?xml version="1.0" encoding="UTF-8" standalone="no"?>
<!DOCTYPE svg PUBLIC "-//W3C//DTD SVG 1.1//EN"
 "http://www.w3.org/Graphics/SVG/1.1/DTD/svg11.dtd">
<!-- Generated by graphviz version 2.43.0 (0)
 -->
<!-- Title: cryptolib/aes/aes.h Pages: 1 -->
<svg width="481pt" height="84pt"
 viewBox="0.00 0.00 480.50 84.00" xmlns="http://www.w3.org/2000/svg" xmlns:xlink="http://www.w3.org/1999/xlink">
<g id="graph0" class="graph" transform="scale(1 1) rotate(0) translate(4 80)">
<title>cryptolib/aes/aes.h</title>
<!-- Node1 -->
<g id="node1" class="node">
<title>Node1</title>
<g id="a_node1"><a xlink:title=" ">
<polygon fill="#bfbfbf" stroke="black" points="160,-56.5 160,-75.5 269,-75.5 269,-56.5 160,-56.5"/>
<text text-anchor="middle" x="214.5" y="-63.5" font-family="Helvetica,sans-Serif" font-size="10.00">cryptolib/aes/aes.h</text>
</a>
</g>
</g>
<!-- Node2 -->
<g id="node2" class="node">
<title>Node2</title>
<g id="a_node2"><a xlink:href="aes__dec_8c_source.html" target="_top" xlink:title=" ">
<polygon fill="none" stroke="black" points="0,-0.5 0,-19.5 131,-19.5 131,-0.5 0,-0.5"/>
<text text-anchor="middle" x="65.5" y="-7.5" font-family="Helvetica,sans-Serif" font-size="10.00">cryptolib/aes/aes_dec.c</text>
</a>
</g>
</g>
<!-- Node1&#45;&gt;Node2 -->
<g id="edge1" class="edge">
<title>Node1&#45;&gt;Node2</title>
<path fill="none" stroke="midnightblue" d="M181.13,-52.91C153.12,-42.75 113.8,-28.51 89,-19.52"/>
<polygon fill="midnightblue" stroke="midnightblue" points="180.3,-56.33 190.89,-56.44 182.68,-49.75 180.3,-56.33"/>
</g>
<!-- Node3 -->
<g id="node3" class="node">
<title>Node3</title>
<g id="a_node3"><a xlink:href="aes__enc_8c.html" target="_top" xlink:title=" ">
<polygon fill="none" stroke="black" points="149,-0.5 149,-19.5 280,-19.5 280,-0.5 149,-0.5"/>
<text text-anchor="middle" x="214.5" y="-7.5" font-family="Helvetica,sans-Serif" font-size="10.00">cryptolib/aes/aes_enc.c</text>
</a>
</g>
</g>
<!-- Node1&#45;&gt;Node3 -->
<g id="edge2" class="edge">
<title>Node1&#45;&gt;Node3</title>
<path fill="none" stroke="midnightblue" d="M214.5,-45.8C214.5,-36.91 214.5,-26.78 214.5,-19.75"/>
<polygon fill="midnightblue" stroke="midnightblue" points="211,-46.08 214.5,-56.08 218,-46.08 211,-46.08"/>
</g>
<!-- Node4 -->
<g id="node4" class="node">
<title>Node4</title>
<g id="a_node4"><a xlink:href="aes__keyschedule_8c.html" target="_top" xlink:title=" ">
<polygon fill="none" stroke="black" points="298.5,-0.5 298.5,-19.5 472.5,-19.5 472.5,-0.5 298.5,-0.5"/>
<text text-anchor="middle" x="385.5" y="-7.5" font-family="Helvetica,sans-Serif" font-size="10.00">cryptolib/aes/aes_keyschedule.c</text>
</a>
</g>
</g>
<!-- Node1&#45;&gt;Node4 -->
<g id="edge3" class="edge">
<title>Node1&#45;&gt;Node4</title>
<path fill="none" stroke="midnightblue" d="M251.54,-53.3C283.76,-43.13 329.69,-28.62 358.53,-19.52"/>
<polygon fill="midnightblue" stroke="midnightblue" points="250.08,-50.09 241.6,-56.44 252.19,-56.77 250.08,-50.09"/>
</g>
</g>
</svg>
