<?xml version="1.0" encoding="UTF-8" standalone="no"?>
<!DOCTYPE svg PUBLIC "-//W3C//DTD SVG 1.1//EN"
 "http://www.w3.org/Graphics/SVG/1.1/DTD/svg11.dtd">
<!-- Generated by graphviz version 2.43.0 (0)
 -->
<!-- Title: aes_init Pages: 1 -->
<svg width="172pt" height="104pt"
 viewBox="0.00 0.00 172.00 104.00" xmlns="http://www.w3.org/2000/svg" xmlns:xlink="http://www.w3.org/1999/xlink">
<g id="graph0" class="graph" transform="scale(1 1) rotate(0) translate(4 100)">
<title>aes_init</title>
<!-- Node1 -->
<g id="node1" class="node">
<title>Node1</title>
<g id="a_node1"><a xlink:title="initialize the keyschedule">
<polygon fill="#bfbfbf" stroke="black" points="109,-38.5 109,-57.5 164,-57.5 164,-38.5 109,-38.5"/>
<text text-anchor="middle" x="136.5" y="-45.5" font-family="Helvetica,sans-Serif" font-size="10.00">aes_init</text>
</a>
</g>
</g>
<!-- Node2 -->
<g id="node2" class="node">
<title>Node2</title>
<g id="a_node2"><a xlink:href="aes__keyschedule_8c.html#aab41d881bca2a9d2315d788ca447c7cc" target="_top" xlink:title="initialize the keyschedule for 128 bit key">
<polygon fill="none" stroke="black" points="0,-76.5 0,-95.5 73,-95.5 73,-76.5 0,-76.5"/>
<text text-anchor="middle" x="36.5" y="-83.5" font-family="Helvetica,sans-Serif" font-size="10.00">aes128_init</text>
</a>
</g>
</g>
<!-- Node1&#45;&gt;Node2 -->
<g id="edge1" class="edge">
<title>Node1&#45;&gt;Node2</title>
<path fill="none" stroke="midnightblue" d="M101.29,-61.26C88.43,-66.25 74.06,-71.82 62.22,-76.41"/>
<polygon fill="midnightblue" stroke="midnightblue" points="102.71,-64.47 110.77,-57.59 100.18,-57.94 102.71,-64.47"/>
</g>
<!-- Node3 -->
<g id="node3" class="node">
<title>Node3</title>
<g id="a_node3"><a xlink:href="aes__keyschedule_8c.html#a205e7326d5804b4bdc881d38d066e92f" target="_top" xlink:title="initialize the keyschedule for 192 bit key">
<polygon fill="none" stroke="black" points="0,-38.5 0,-57.5 73,-57.5 73,-38.5 0,-38.5"/>
<text text-anchor="middle" x="36.5" y="-45.5" font-family="Helvetica,sans-Serif" font-size="10.00">aes192_init</text>
</a>
</g>
</g>
<!-- Node1&#45;&gt;Node3 -->
<g id="edge2" class="edge">
<title>Node1&#45;&gt;Node3</title>
<path fill="none" stroke="midnightblue" d="M98.76,-48C90.41,-48 81.55,-48 73.24,-48"/>
<polygon fill="midnightblue" stroke="midnightblue" points="98.98,-51.5 108.98,-48 98.98,-44.5 98.98,-51.5"/>
</g>
<!-- Node4 -->
<g id="node4" class="node">
<title>Node4</title>
<g id="a_node4"><a xlink:href="aes__keyschedule_8c.html#a326bf60f4d24a2862f7986ac2ccf093e" target="_top" xlink:title="initialize the keyschedule for 256 bit key">
<polygon fill="none" stroke="black" points="0,-0.5 0,-19.5 73,-19.5 73,-0.5 0,-0.5"/>
<text text-anchor="middle" x="36.5" y="-7.5" font-family="Helvetica,sans-Serif" font-size="10.00">aes256_init</text>
</a>
</g>
</g>
<!-- Node1&#45;&gt;Node4 -->
<g id="edge3" class="edge">
<title>Node1&#45;&gt;Node4</title>
<path fill="none" stroke="midnightblue" d="M101.29,-34.74C88.43,-29.75 74.06,-24.18 62.22,-19.59"/>
<polygon fill="midnightblue" stroke="midnightblue" points="100.18,-38.06 110.77,-38.41 102.71,-31.53 100.18,-38.06"/>
</g>
</g>
</svg>
