<?xml version="1.0" encoding="UTF-8" standalone="no"?>
<!DOCTYPE svg PUBLIC "-//W3C//DTD SVG 1.1//EN"
 "http://www.w3.org/Graphics/SVG/1.1/DTD/svg11.dtd">
<!-- Generated by graphviz version 2.43.0 (0)
 -->
<!-- Title: cryptolib/aes/aes.h Pages: 1 -->
<svg width="338pt" height="196pt"
 viewBox="0.00 0.00 338.49 196.00" xmlns="http://www.w3.org/2000/svg" xmlns:xlink="http://www.w3.org/1999/xlink">
<g id="graph0" class="graph" transform="scale(1 1) rotate(0) translate(4 192)">
<title>cryptolib/aes/aes.h</title>
<!-- Node1 -->
<g id="node1" class="node">
<title>Node1</title>
<g id="a_node1"><a xlink:title=" ">
<polygon fill="#bfbfbf" stroke="black" points="55.49,-168.5 55.49,-187.5 164.49,-187.5 164.49,-168.5 55.49,-168.5"/>
<text text-anchor="middle" x="109.99" y="-175.5" font-family="Helvetica,sans-Serif" font-size="10.00">cryptolib/aes/aes.h</text>
</a>
</g>
</g>
<!-- Node2 -->
<g id="node2" class="node">
<title>Node2</title>
<g id="a_node2"><a xlink:title=" ">
<polygon fill="none" stroke="#bfbfbf" points="55.49,-0.5 55.49,-19.5 108.49,-19.5 108.49,-0.5 55.49,-0.5"/>
<text text-anchor="middle" x="81.99" y="-7.5" font-family="Helvetica,sans-Serif" font-size="10.00">stdint.h</text>
</a>
</g>
</g>
<!-- Node1&#45;&gt;Node2 -->
<g id="edge1" class="edge">
<title>Node1&#45;&gt;Node2</title>
<path fill="none" stroke="midnightblue" d="M62.65,-168.42C41.88,-162.05 19.44,-151.02 6.99,-132 -17.77,-94.17 31.16,-48.61 61.1,-25.7"/>
<polygon fill="midnightblue" stroke="midnightblue" points="63.37,-28.37 69.32,-19.6 59.2,-22.74 63.37,-28.37"/>
</g>
<!-- Node3 -->
<g id="node3" class="node">
<title>Node3</title>
<g id="a_node3"><a xlink:href="aes__types_8h.html" target="_top" xlink:title=" ">
<polygon fill="none" stroke="black" points="77.49,-56.5 77.49,-75.5 152.49,-75.5 152.49,-56.5 77.49,-56.5"/>
<text text-anchor="middle" x="114.99" y="-63.5" font-family="Helvetica,sans-Serif" font-size="10.00">aes_types.h</text>
</a>
</g>
</g>
<!-- Node1&#45;&gt;Node3 -->
<g id="edge2" class="edge">
<title>Node1&#45;&gt;Node3</title>
<path fill="none" stroke="midnightblue" d="M110.38,-168.37C111.19,-150.62 113.05,-109.67 114.14,-85.6"/>
<polygon fill="midnightblue" stroke="midnightblue" points="117.64,-85.74 114.6,-75.59 110.65,-85.42 117.64,-85.74"/>
</g>
<!-- Node4 -->
<g id="node4" class="node">
<title>Node4</title>
<g id="a_node4"><a xlink:href="aes__enc_8h.html" target="_top" xlink:title=" ">
<polygon fill="none" stroke="black" points="16.49,-112.5 16.49,-131.5 81.49,-131.5 81.49,-112.5 16.49,-112.5"/>
<text text-anchor="middle" x="48.99" y="-119.5" font-family="Helvetica,sans-Serif" font-size="10.00">aes_enc.h</text>
</a>
</g>
</g>
<!-- Node1&#45;&gt;Node4 -->
<g id="edge4" class="edge">
<title>Node1&#45;&gt;Node4</title>
<path fill="none" stroke="midnightblue" d="M100.19,-168.32C91.17,-160.34 77.58,-148.31 66.67,-138.65"/>
<polygon fill="midnightblue" stroke="midnightblue" points="68.77,-135.84 58.97,-131.83 64.13,-141.08 68.77,-135.84"/>
</g>
<!-- Node5 -->
<g id="node5" class="node">
<title>Node5</title>
<g id="a_node5"><a xlink:href="aes__dec_8h.html" target="_top" xlink:title=" ">
<polygon fill="none" stroke="black" points="265.49,-112.5 265.49,-131.5 330.49,-131.5 330.49,-112.5 265.49,-112.5"/>
<text text-anchor="middle" x="297.99" y="-119.5" font-family="Helvetica,sans-Serif" font-size="10.00">aes_dec.h</text>
</a>
</g>
</g>
<!-- Node1&#45;&gt;Node5 -->
<g id="edge7" class="edge">
<title>Node1&#45;&gt;Node5</title>
<path fill="none" stroke="midnightblue" d="M139.78,-168.44C171.82,-159.24 222.92,-144.56 258.34,-134.39"/>
<polygon fill="midnightblue" stroke="midnightblue" points="259.69,-137.64 268.34,-131.52 257.76,-130.91 259.69,-137.64"/>
</g>
<!-- Node6 -->
<g id="node6" class="node">
<title>Node6</title>
<g id="a_node6"><a xlink:href="aes__keyschedule_8h.html" target="_top" xlink:title=" ">
<polygon fill="none" stroke="black" points="138.49,-112.5 138.49,-131.5 247.49,-131.5 247.49,-112.5 138.49,-112.5"/>
<text text-anchor="middle" x="192.99" y="-119.5" font-family="Helvetica,sans-Serif" font-size="10.00">aes_keyschedule.h</text>
</a>
</g>
</g>
<!-- Node1&#45;&gt;Node6 -->
<g id="edge10" class="edge">
<title>Node1&#45;&gt;Node6</title>
<path fill="none" stroke="midnightblue" d="M123.32,-168.32C136.15,-159.98 155.77,-147.21 170.93,-137.35"/>
<polygon fill="midnightblue" stroke="midnightblue" points="173.21,-140.04 179.68,-131.65 169.39,-134.17 173.21,-140.04"/>
</g>
<!-- Node3&#45;&gt;Node2 -->
<g id="edge3" class="edge">
<title>Node3&#45;&gt;Node2</title>
<path fill="none" stroke="midnightblue" d="M109.54,-56.08C104.97,-48.61 98.32,-37.72 92.69,-28.52"/>
<polygon fill="midnightblue" stroke="midnightblue" points="95.54,-26.46 87.33,-19.75 89.56,-30.11 95.54,-26.46"/>
</g>
<!-- Node4&#45;&gt;Node2 -->
<g id="edge6" class="edge">
<title>Node4&#45;&gt;Node2</title>
<path fill="none" stroke="midnightblue" d="M51.58,-112.37C56.93,-94.54 69.3,-53.3 76.51,-29.27"/>
<polygon fill="midnightblue" stroke="midnightblue" points="79.89,-30.18 79.41,-19.59 73.18,-28.16 79.89,-30.18"/>
</g>
<!-- Node4&#45;&gt;Node3 -->
<g id="edge5" class="edge">
<title>Node4&#45;&gt;Node3</title>
<path fill="none" stroke="midnightblue" d="M59.59,-112.32C69.44,-104.26 84.34,-92.08 96.2,-82.37"/>
<polygon fill="midnightblue" stroke="midnightblue" points="98.67,-84.88 104.19,-75.83 94.23,-79.46 98.67,-84.88"/>
</g>
<!-- Node5&#45;&gt;Node2 -->
<g id="edge9" class="edge">
<title>Node5&#45;&gt;Node2</title>
<path fill="none" stroke="midnightblue" d="M281.04,-112.37C243.42,-93.21 152.75,-47.04 107.94,-24.22"/>
<polygon fill="midnightblue" stroke="midnightblue" points="109.36,-21.01 98.86,-19.59 106.18,-27.25 109.36,-21.01"/>
</g>
<!-- Node5&#45;&gt;Node3 -->
<g id="edge8" class="edge">
<title>Node5&#45;&gt;Node3</title>
<path fill="none" stroke="midnightblue" d="M268.99,-112.44C237.8,-103.24 188.06,-88.56 153.58,-78.39"/>
<polygon fill="midnightblue" stroke="midnightblue" points="154.43,-74.99 143.85,-75.52 152.45,-81.7 154.43,-74.99"/>
</g>
<!-- Node6&#45;&gt;Node3 -->
<g id="edge11" class="edge">
<title>Node6&#45;&gt;Node3</title>
<path fill="none" stroke="midnightblue" d="M180.45,-112.32C168.4,-103.98 149.96,-91.21 135.72,-81.35"/>
<polygon fill="midnightblue" stroke="midnightblue" points="137.7,-78.47 127.49,-75.65 133.72,-84.22 137.7,-78.47"/>
</g>
</g>
</svg>
