<?xml version="1.0" encoding="UTF-8" standalone="no"?>
<!DOCTYPE svg PUBLIC "-//W3C//DTD SVG 1.1//EN"
 "http://www.w3.org/Graphics/SVG/1.1/DTD/svg11.dtd">
<!-- Generated by graphviz version 2.43.0 (0)
 -->
<!-- Title: cryptolib/aes/aes_keyschedule.h Pages: 1 -->
<svg width="481pt" height="140pt"
 viewBox="0.00 0.00 480.50 140.00" xmlns="http://www.w3.org/2000/svg" xmlns:xlink="http://www.w3.org/1999/xlink">
<g id="graph0" class="graph" transform="scale(1 1) rotate(0) translate(4 136)">
<title>cryptolib/aes/aes_keyschedule.h</title>
<!-- Node1 -->
<g id="node1" class="node">
<title>Node1</title>
<g id="a_node1"><a xlink:title=" ">
<polygon fill="#bfbfbf" stroke="black" points="212,-112.5 212,-131.5 387,-131.5 387,-112.5 212,-112.5"/>
<text text-anchor="middle" x="299.5" y="-119.5" font-family="Helvetica,sans-Serif" font-size="10.00">cryptolib/aes/aes_keyschedule.h</text>
</a>
</g>
</g>
<!-- Node2 -->
<g id="node2" class="node">
<title>Node2</title>
<g id="a_node2"><a xlink:href="aes_8h.html" target="_top" xlink:title=" ">
<polygon fill="none" stroke="black" points="204,-56.5 204,-75.5 313,-75.5 313,-56.5 204,-56.5"/>
<text text-anchor="middle" x="258.5" y="-63.5" font-family="Helvetica,sans-Serif" font-size="10.00">cryptolib/aes/aes.h</text>
</a>
</g>
</g>
<!-- Node1&#45;&gt;Node2 -->
<g id="edge1" class="edge">
<title>Node1&#45;&gt;Node2</title>
<path fill="none" stroke="midnightblue" d="M286.48,-103.86C279.38,-94.5 270.9,-83.33 265.14,-75.75"/>
<polygon fill="midnightblue" stroke="midnightblue" points="283.89,-106.24 292.73,-112.08 289.47,-102 283.89,-106.24"/>
</g>
<!-- Node5 -->
<g id="node5" class="node">
<title>Node5</title>
<g id="a_node5"><a xlink:href="aes__keyschedule_8c.html" target="_top" xlink:title=" ">
<polygon fill="none" stroke="black" points="298.5,-0.5 298.5,-19.5 472.5,-19.5 472.5,-0.5 298.5,-0.5"/>
<text text-anchor="middle" x="385.5" y="-7.5" font-family="Helvetica,sans-Serif" font-size="10.00">cryptolib/aes/aes_keyschedule.c</text>
</a>
</g>
</g>
<!-- Node1&#45;&gt;Node5 -->
<g id="edge5" class="edge">
<title>Node1&#45;&gt;Node5</title>
<path fill="none" stroke="midnightblue" d="M312.58,-104.27C331.17,-80.49 364.56,-37.79 378.78,-19.59"/>
<polygon fill="midnightblue" stroke="midnightblue" points="309.65,-102.33 306.25,-112.37 315.16,-106.65 309.65,-102.33"/>
</g>
<!-- Node3 -->
<g id="node3" class="node">
<title>Node3</title>
<g id="a_node3"><a xlink:href="aes__dec_8c_source.html" target="_top" xlink:title=" ">
<polygon fill="none" stroke="black" points="0,-0.5 0,-19.5 131,-19.5 131,-0.5 0,-0.5"/>
<text text-anchor="middle" x="65.5" y="-7.5" font-family="Helvetica,sans-Serif" font-size="10.00">cryptolib/aes/aes_dec.c</text>
</a>
</g>
</g>
<!-- Node2&#45;&gt;Node3 -->
<g id="edge2" class="edge">
<title>Node2&#45;&gt;Node3</title>
<path fill="none" stroke="midnightblue" d="M218.11,-53.7C181.68,-43.51 128.91,-28.74 95.94,-19.52"/>
<polygon fill="midnightblue" stroke="midnightblue" points="217.35,-57.12 227.92,-56.44 219.23,-50.38 217.35,-57.12"/>
</g>
<!-- Node4 -->
<g id="node4" class="node">
<title>Node4</title>
<g id="a_node4"><a xlink:href="aes__enc_8c.html" target="_top" xlink:title=" ">
<polygon fill="none" stroke="black" points="149,-0.5 149,-19.5 280,-19.5 280,-0.5 149,-0.5"/>
<text text-anchor="middle" x="214.5" y="-7.5" font-family="Helvetica,sans-Serif" font-size="10.00">cryptolib/aes/aes_enc.c</text>
</a>
</g>
</g>
<!-- Node2&#45;&gt;Node4 -->
<g id="edge3" class="edge">
<title>Node2&#45;&gt;Node4</title>
<path fill="none" stroke="midnightblue" d="M244.77,-48.14C237.1,-38.74 227.87,-27.4 221.63,-19.75"/>
<polygon fill="midnightblue" stroke="midnightblue" points="242.2,-50.54 251.23,-56.08 247.63,-46.12 242.2,-50.54"/>
</g>
<!-- Node2&#45;&gt;Node5 -->
<g id="edge4" class="edge">
<title>Node2&#45;&gt;Node5</title>
<path fill="none" stroke="midnightblue" d="M287.89,-52.5C311.7,-42.38 344.61,-28.39 365.47,-19.52"/>
<polygon fill="midnightblue" stroke="midnightblue" points="286.46,-49.31 278.62,-56.44 289.2,-55.75 286.46,-49.31"/>
</g>
</g>
</svg>
