<?xml version="1.0" encoding="UTF-8" standalone="no"?>
<!DOCTYPE svg PUBLIC "-//W3C//DTD SVG 1.1//EN"
 "http://www.w3.org/Graphics/SVG/1.1/DTD/svg11.dtd">
<!-- Generated by graphviz version 2.43.0 (0)
 -->
<!-- Title: cryptolib/aes/aes_enc.c Pages: 1 -->
<svg width="554pt" height="252pt"
 viewBox="0.00 0.00 554.05 252.00" xmlns="http://www.w3.org/2000/svg" xmlns:xlink="http://www.w3.org/1999/xlink">
<g id="graph0" class="graph" transform="scale(1 1) rotate(0) translate(4 248)">
<title>cryptolib/aes/aes_enc.c</title>
<!-- Node1 -->
<g id="node1" class="node">
<title>Node1</title>
<g id="a_node1"><a xlink:title=" ">
<polygon fill="#bfbfbf" stroke="black" points="282.05,-224.5 282.05,-243.5 413.05,-243.5 413.05,-224.5 282.05,-224.5"/>
<text text-anchor="middle" x="347.55" y="-231.5" font-family="Helvetica,sans-Serif" font-size="10.00">cryptolib/aes/aes_enc.c</text>
</a>
</g>
</g>
<!-- Node2 -->
<g id="node2" class="node">
<title>Node2</title>
<g id="a_node2"><a xlink:title=" ">
<polygon fill="none" stroke="#bfbfbf" points="142.05,-0.5 142.05,-19.5 195.05,-19.5 195.05,-0.5 142.05,-0.5"/>
<text text-anchor="middle" x="168.55" y="-7.5" font-family="Helvetica,sans-Serif" font-size="10.00">stdint.h</text>
</a>
</g>
</g>
<!-- Node1&#45;&gt;Node2 -->
<g id="edge1" class="edge">
<title>Node1&#45;&gt;Node2</title>
<path fill="none" stroke="midnightblue" d="M285.84,-224.45C195.67,-210.46 35.26,-179.41 4.55,-132 -8.69,-111.56 10.33,-68.07 22.55,-56 51.75,-27.15 98.99,-16.74 131.8,-13.01"/>
<polygon fill="midnightblue" stroke="midnightblue" points="132.29,-16.48 141.9,-12.02 131.61,-9.51 132.29,-16.48"/>
</g>
<!-- Node3 -->
<g id="node3" class="node">
<title>Node3</title>
<g id="a_node3"><a xlink:title=" ">
<polygon fill="none" stroke="#bfbfbf" points="493.05,-168.5 493.05,-187.5 546.05,-187.5 546.05,-168.5 493.05,-168.5"/>
<text text-anchor="middle" x="519.55" y="-175.5" font-family="Helvetica,sans-Serif" font-size="10.00">string.h</text>
</a>
</g>
</g>
<!-- Node1&#45;&gt;Node3 -->
<g id="edge2" class="edge">
<title>Node1&#45;&gt;Node3</title>
<path fill="none" stroke="midnightblue" d="M374.8,-224.44C404.16,-215.23 451.02,-200.52 483.43,-190.34"/>
<polygon fill="midnightblue" stroke="midnightblue" points="484.49,-193.67 492.99,-187.34 482.4,-187 484.49,-193.67"/>
</g>
<!-- Node4 -->
<g id="node4" class="node">
<title>Node4</title>
<g id="a_node4"><a xlink:href="aes_8h.html" target="_top" xlink:title=" ">
<polygon fill="none" stroke="black" points="139.05,-168.5 139.05,-187.5 182.05,-187.5 182.05,-168.5 139.05,-168.5"/>
<text text-anchor="middle" x="160.55" y="-175.5" font-family="Helvetica,sans-Serif" font-size="10.00">aes.h</text>
</a>
</g>
</g>
<!-- Node1&#45;&gt;Node4 -->
<g id="edge3" class="edge">
<title>Node1&#45;&gt;Node4</title>
<path fill="none" stroke="midnightblue" d="M317.92,-224.44C283.52,-214.51 227.02,-198.2 191.9,-188.05"/>
<polygon fill="midnightblue" stroke="midnightblue" points="192.75,-184.66 182.17,-185.24 190.81,-191.38 192.75,-184.66"/>
</g>
<!-- Node6 -->
<g id="node6" class="node">
<title>Node6</title>
<g id="a_node6"><a xlink:href="aes__enc_8h.html" target="_top" xlink:title=" ">
<polygon fill="none" stroke="black" points="274.05,-112.5 274.05,-131.5 339.05,-131.5 339.05,-112.5 274.05,-112.5"/>
<text text-anchor="middle" x="306.55" y="-119.5" font-family="Helvetica,sans-Serif" font-size="10.00">aes_enc.h</text>
</a>
</g>
</g>
<!-- Node1&#45;&gt;Node6 -->
<g id="edge20" class="edge">
<title>Node1&#45;&gt;Node6</title>
<path fill="none" stroke="midnightblue" d="M344.33,-224.37C337.68,-206.54 322.31,-165.3 313.36,-141.27"/>
<polygon fill="midnightblue" stroke="midnightblue" points="316.52,-139.74 309.75,-131.59 309.96,-142.18 316.52,-139.74"/>
</g>
<!-- Node9 -->
<g id="node9" class="node">
<title>Node9</title>
<g id="a_node9"><a xlink:href="gf256mul_8h_source.html" target="_top" xlink:title=" ">
<polygon fill="none" stroke="black" points="280.05,-56.5 280.05,-75.5 411.05,-75.5 411.05,-56.5 280.05,-56.5"/>
<text text-anchor="middle" x="345.55" y="-63.5" font-family="Helvetica,sans-Serif" font-size="10.00">../gf256mul/gf256mul.h</text>
</a>
</g>
</g>
<!-- Node1&#45;&gt;Node9 -->
<g id="edge15" class="edge">
<title>Node1&#45;&gt;Node9</title>
<path fill="none" stroke="midnightblue" d="M347.68,-224.49C347.95,-204.73 348.49,-154.21 347.55,-112 347.36,-103.39 346.96,-93.86 346.57,-85.8"/>
<polygon fill="midnightblue" stroke="midnightblue" points="350.06,-85.43 346.04,-75.62 343.06,-85.79 350.06,-85.43"/>
</g>
<!-- Node10 -->
<g id="node10" class="node">
<title>Node10</title>
<g id="a_node10"><a xlink:href="aes__sbox_8h.html" target="_top" xlink:title=" ">
<polygon fill="none" stroke="black" points="404.05,-168.5 404.05,-187.5 475.05,-187.5 475.05,-168.5 404.05,-168.5"/>
<text text-anchor="middle" x="439.55" y="-175.5" font-family="Helvetica,sans-Serif" font-size="10.00">aes_sbox.h</text>
</a>
</g>
</g>
<!-- Node1&#45;&gt;Node10 -->
<g id="edge17" class="edge">
<title>Node1&#45;&gt;Node10</title>
<path fill="none" stroke="midnightblue" d="M362.33,-224.32C376.81,-215.82 399.12,-202.73 416.04,-192.8"/>
<polygon fill="midnightblue" stroke="midnightblue" points="417.95,-195.74 424.8,-187.65 414.41,-189.7 417.95,-195.74"/>
</g>
<!-- Node4&#45;&gt;Node2 -->
<g id="edge4" class="edge">
<title>Node4&#45;&gt;Node2</title>
<path fill="none" stroke="midnightblue" d="M138.88,-177.58C105.96,-177.14 44.16,-170.83 15.55,-132 -21.88,-81.2 76.21,-40.25 132.39,-21.72"/>
<polygon fill="midnightblue" stroke="midnightblue" points="133.57,-25.02 142.02,-18.63 131.42,-18.36 133.57,-25.02"/>
</g>
<!-- Node5 -->
<g id="node5" class="node">
<title>Node5</title>
<g id="a_node5"><a xlink:href="aes__types_8h.html" target="_top" xlink:title=" ">
<polygon fill="none" stroke="black" points="131.05,-56.5 131.05,-75.5 206.05,-75.5 206.05,-56.5 131.05,-56.5"/>
<text text-anchor="middle" x="168.55" y="-63.5" font-family="Helvetica,sans-Serif" font-size="10.00">aes_types.h</text>
</a>
</g>
</g>
<!-- Node4&#45;&gt;Node5 -->
<g id="edge5" class="edge">
<title>Node4&#45;&gt;Node5</title>
<path fill="none" stroke="midnightblue" d="M153.68,-168.24C144.81,-155.82 131.22,-132.35 137.55,-112 140.78,-101.62 147.32,-91.52 153.57,-83.53"/>
<polygon fill="midnightblue" stroke="midnightblue" points="156.33,-85.68 160.07,-75.77 150.96,-81.19 156.33,-85.68"/>
</g>
<!-- Node4&#45;&gt;Node6 -->
<g id="edge7" class="edge">
<title>Node4&#45;&gt;Node6</title>
<path fill="none" stroke="midnightblue" d="M182.09,-169.03C206.36,-160.06 246.06,-145.37 274.09,-135.01"/>
<polygon fill="midnightblue" stroke="midnightblue" points="275.3,-138.29 283.47,-131.54 272.88,-131.72 275.3,-138.29"/>
</g>
<!-- Node7 -->
<g id="node7" class="node">
<title>Node7</title>
<g id="a_node7"><a xlink:href="aes__dec_8h.html" target="_top" xlink:title=" ">
<polygon fill="none" stroke="black" points="25.05,-112.5 25.05,-131.5 90.05,-131.5 90.05,-112.5 25.05,-112.5"/>
<text text-anchor="middle" x="57.55" y="-119.5" font-family="Helvetica,sans-Serif" font-size="10.00">aes_dec.h</text>
</a>
</g>
</g>
<!-- Node4&#45;&gt;Node7 -->
<g id="edge10" class="edge">
<title>Node4&#45;&gt;Node7</title>
<path fill="none" stroke="midnightblue" d="M144,-168.32C127.56,-159.7 102.11,-146.36 83.08,-136.39"/>
<polygon fill="midnightblue" stroke="midnightblue" points="84.54,-133.2 74.06,-131.65 81.29,-139.4 84.54,-133.2"/>
</g>
<!-- Node8 -->
<g id="node8" class="node">
<title>Node8</title>
<g id="a_node8"><a xlink:href="aes__keyschedule_8h.html" target="_top" xlink:title=" ">
<polygon fill="none" stroke="black" points="147.05,-112.5 147.05,-131.5 256.05,-131.5 256.05,-112.5 147.05,-112.5"/>
<text text-anchor="middle" x="201.55" y="-119.5" font-family="Helvetica,sans-Serif" font-size="10.00">aes_keyschedule.h</text>
</a>
</g>
</g>
<!-- Node4&#45;&gt;Node8 -->
<g id="edge13" class="edge">
<title>Node4&#45;&gt;Node8</title>
<path fill="none" stroke="midnightblue" d="M167.32,-168.08C173.11,-160.46 181.61,-149.26 188.69,-139.94"/>
<polygon fill="midnightblue" stroke="midnightblue" points="191.64,-141.83 194.9,-131.75 186.07,-137.6 191.64,-141.83"/>
</g>
<!-- Node5&#45;&gt;Node2 -->
<g id="edge6" class="edge">
<title>Node5&#45;&gt;Node2</title>
<path fill="none" stroke="midnightblue" d="M168.55,-56.08C168.55,-49.01 168.55,-38.86 168.55,-29.99"/>
<polygon fill="midnightblue" stroke="midnightblue" points="172.05,-29.75 168.55,-19.75 165.05,-29.75 172.05,-29.75"/>
</g>
<!-- Node6&#45;&gt;Node2 -->
<g id="edge9" class="edge">
<title>Node6&#45;&gt;Node2</title>
<path fill="none" stroke="midnightblue" d="M295.72,-112.37C272.24,-93.65 216.41,-49.15 187.16,-25.83"/>
<polygon fill="midnightblue" stroke="midnightblue" points="189.33,-23.09 179.33,-19.59 184.96,-28.56 189.33,-23.09"/>
</g>
<!-- Node6&#45;&gt;Node5 -->
<g id="edge8" class="edge">
<title>Node6&#45;&gt;Node5</title>
<path fill="none" stroke="midnightblue" d="M284.68,-112.44C261.77,-103.48 225.57,-89.31 199.68,-79.18"/>
<polygon fill="midnightblue" stroke="midnightblue" points="200.9,-75.9 190.31,-75.52 198.35,-82.42 200.9,-75.9"/>
</g>
<!-- Node7&#45;&gt;Node2 -->
<g id="edge12" class="edge">
<title>Node7&#45;&gt;Node2</title>
<path fill="none" stroke="midnightblue" d="M66.16,-112.09C78.38,-99.49 101.48,-75.79 121.55,-56 131.63,-46.06 143.1,-35.07 152.18,-26.44"/>
<polygon fill="midnightblue" stroke="midnightblue" points="154.61,-28.97 159.46,-19.55 149.79,-23.88 154.61,-28.97"/>
</g>
<!-- Node7&#45;&gt;Node5 -->
<g id="edge11" class="edge">
<title>Node7&#45;&gt;Node5</title>
<path fill="none" stroke="midnightblue" d="M75.38,-112.32C93.26,-103.62 121.02,-90.12 141.59,-80.11"/>
<polygon fill="midnightblue" stroke="midnightblue" points="143.3,-83.18 150.76,-75.65 140.23,-76.88 143.3,-83.18"/>
</g>
<!-- Node8&#45;&gt;Node5 -->
<g id="edge14" class="edge">
<title>Node8&#45;&gt;Node5</title>
<path fill="none" stroke="midnightblue" d="M196.1,-112.08C191.53,-104.61 184.88,-93.72 179.25,-84.52"/>
<polygon fill="midnightblue" stroke="midnightblue" points="182.1,-82.46 173.9,-75.75 176.12,-86.11 182.1,-82.46"/>
</g>
<!-- Node9&#45;&gt;Node2 -->
<g id="edge16" class="edge">
<title>Node9&#45;&gt;Node2</title>
<path fill="none" stroke="midnightblue" d="M317.5,-56.44C287.11,-47.17 238.51,-32.34 205.13,-22.16"/>
<polygon fill="midnightblue" stroke="midnightblue" points="205.89,-18.73 195.3,-19.16 203.85,-25.43 205.89,-18.73"/>
</g>
<!-- Node10&#45;&gt;Node2 -->
<g id="edge18" class="edge">
<title>Node10&#45;&gt;Node2</title>
<path fill="none" stroke="midnightblue" d="M462.89,-168.32C488.55,-157.33 524.41,-136.8 510.55,-112 487.38,-70.54 463.92,-72.93 419.55,-56 346.56,-28.15 254.95,-17.31 205.05,-13.27"/>
<polygon fill="midnightblue" stroke="midnightblue" points="205.3,-9.78 195.06,-12.5 204.77,-16.76 205.3,-9.78"/>
</g>
<!-- Node11 -->
<g id="node11" class="node">
<title>Node11</title>
<g id="a_node11"><a xlink:title=" ">
<polygon fill="none" stroke="#bfbfbf" points="395.55,-112.5 395.55,-131.5 501.55,-131.5 501.55,-112.5 395.55,-112.5"/>
<text text-anchor="middle" x="448.55" y="-119.5" font-family="Helvetica,sans-Serif" font-size="10.00">platform/romem.h</text>
</a>
</g>
</g>
<!-- Node10&#45;&gt;Node11 -->
<g id="edge19" class="edge">
<title>Node10&#45;&gt;Node11</title>
<path fill="none" stroke="midnightblue" d="M441.03,-168.08C442.23,-160.93 443.94,-150.64 445.43,-141.69"/>
<polygon fill="midnightblue" stroke="midnightblue" points="448.9,-142.19 447.09,-131.75 441.99,-141.04 448.9,-142.19"/>
</g>
</g>
</svg>
