<?xml version="1.0" encoding="UTF-8" standalone="no"?>
<!DOCTYPE svg PUBLIC "-//W3C//DTD SVG 1.1//EN"
 "http://www.w3.org/Graphics/SVG/1.1/DTD/svg11.dtd">
<!-- Generated by graphviz version 2.43.0 (0)
 -->
<!-- Title: entropium_getRandomByte Pages: 1 -->
<svg width="630pt" height="66pt"
 viewBox="0.00 0.00 630.00 66.00" xmlns="http://www.w3.org/2000/svg" xmlns:xlink="http://www.w3.org/1999/xlink">
<g id="graph0" class="graph" transform="scale(1 1) rotate(0) translate(4 62)">
<title>entropium_getRandomByte</title>
<!-- Node1 -->
<g id="node1" class="node">
<title>Node1</title>
<g id="a_node1"><a xlink:title="get a single byte of random data">
<polygon fill="#bfbfbf" stroke="black" points="0,-19.5 0,-38.5 151,-38.5 151,-19.5 0,-19.5"/>
<text text-anchor="middle" x="75.5" y="-26.5" font-family="Helvetica,sans-Serif" font-size="10.00">entropium_getRandomByte</text>
</a>
</g>
</g>
<!-- Node2 -->
<g id="node2" class="node">
<title>Node2</title>
<g id="a_node2"><a xlink:href="entropium_8c.html#a95d14d8c2bb18d26216b82f467eefb03" target="_top" xlink:title="generate a fixed size block of random data">
<polygon fill="none" stroke="black" points="187,-19.5 187,-38.5 342,-38.5 342,-19.5 187,-19.5"/>
<text text-anchor="middle" x="264.5" y="-26.5" font-family="Helvetica,sans-Serif" font-size="10.00">entropium_getRandomBlock</text>
</a>
</g>
</g>
<!-- Node1&#45;&gt;Node2 -->
<g id="edge1" class="edge">
<title>Node1&#45;&gt;Node2</title>
<path fill="none" stroke="midnightblue" d="M151.21,-29C159.53,-29 168.06,-29 176.51,-29"/>
<polygon fill="midnightblue" stroke="midnightblue" points="176.76,-32.5 186.76,-29 176.76,-25.5 176.76,-32.5"/>
</g>
<!-- Node3 -->
<g id="node3" class="node">
<title>Node3</title>
<g id="a_node3"><a xlink:href="sha256_8c.html#ae436d07e4a6f3e8eeab60a8c2a0cf472" target="_top" xlink:title="sh256_init initialises a sha256 context for hashing. sh256_init c initialises the given sha256 contex...">
<polygon fill="none" stroke="black" points="392.5,-38.5 392.5,-57.5 465.5,-57.5 465.5,-38.5 392.5,-38.5"/>
<text text-anchor="middle" x="429" y="-45.5" font-family="Helvetica,sans-Serif" font-size="10.00">sha256_init</text>
</a>
</g>
</g>
<!-- Node2&#45;&gt;Node3 -->
<g id="edge2" class="edge">
<title>Node2&#45;&gt;Node3</title>
<path fill="none" stroke="midnightblue" d="M342.47,-38C356.05,-39.59 369.8,-41.2 382.18,-42.64"/>
<polygon fill="midnightblue" stroke="midnightblue" points="381.89,-46.13 392.23,-43.82 382.7,-39.18 381.89,-46.13"/>
</g>
<!-- Node4 -->
<g id="node4" class="node">
<title>Node4</title>
<g id="a_node4"><a xlink:href="sha256_8c.html#a5837f901296887d759c2698866748d25" target="_top" xlink:title="function to process the last block being hashed">
<polygon fill="none" stroke="black" points="378,-0.5 378,-19.5 480,-19.5 480,-0.5 378,-0.5"/>
<text text-anchor="middle" x="429" y="-7.5" font-family="Helvetica,sans-Serif" font-size="10.00">sha256_lastBlock</text>
</a>
</g>
</g>
<!-- Node2&#45;&gt;Node4 -->
<g id="edge3" class="edge">
<title>Node2&#45;&gt;Node4</title>
<path fill="none" stroke="midnightblue" d="M342.47,-20C350.89,-19.02 359.37,-18.02 367.55,-17.07"/>
<polygon fill="midnightblue" stroke="midnightblue" points="368.2,-20.52 377.73,-15.88 367.39,-13.56 368.2,-20.52"/>
</g>
<!-- Node5 -->
<g id="node5" class="node">
<title>Node5</title>
<g id="a_node5"><a xlink:href="sha256_8c.html#a33a5ddbbf0f2cb105a2191a72624138d" target="_top" xlink:title="update the context with a given block">
<polygon fill="none" stroke="black" points="516,-0.5 516,-19.5 622,-19.5 622,-0.5 516,-0.5"/>
<text text-anchor="middle" x="569" y="-7.5" font-family="Helvetica,sans-Serif" font-size="10.00">sha256_nextBlock</text>
</a>
</g>
</g>
<!-- Node4&#45;&gt;Node5 -->
<g id="edge4" class="edge">
<title>Node4&#45;&gt;Node5</title>
<path fill="none" stroke="midnightblue" d="M480.21,-10C488.43,-10 497.03,-10 505.5,-10"/>
<polygon fill="midnightblue" stroke="midnightblue" points="505.74,-13.5 515.74,-10 505.74,-6.5 505.74,-13.5"/>
</g>
</g>
</svg>
