<?xml version="1.0" encoding="UTF-8" standalone="no"?>
<!DOCTYPE svg PUBLIC "-//W3C//DTD SVG 1.1//EN"
 "http://www.w3.org/Graphics/SVG/1.1/DTD/svg11.dtd">
<!-- Generated by graphviz version 2.43.0 (0)
 -->
<!-- Title: cryptolib/entropium/entropium.c Pages: 1 -->
<svg width="296pt" height="151pt"
 viewBox="0.00 0.00 295.80 151.00" xmlns="http://www.w3.org/2000/svg" xmlns:xlink="http://www.w3.org/1999/xlink">
<g id="graph0" class="graph" transform="scale(1 1) rotate(0) translate(4 147)">
<title>cryptolib/entropium/entropium.c</title>
<!-- Node1 -->
<g id="node1" class="node">
<title>Node1</title>
<g id="a_node1"><a xlink:title="This file contains an implementaition of a pseudo&#45;random&#45;number generator.">
<polygon fill="#bfbfbf" stroke="black" points="33.3,-112.5 33.3,-142.5 146.3,-142.5 146.3,-112.5 33.3,-112.5"/>
<text text-anchor="start" x="41.3" y="-130.5" font-family="Helvetica,sans-Serif" font-size="10.00">cryptolib/entropium</text>
<text text-anchor="middle" x="89.8" y="-119.5" font-family="Helvetica,sans-Serif" font-size="10.00">/entropium.c</text>
</a>
</g>
</g>
<!-- Node2 -->
<g id="node2" class="node">
<title>Node2</title>
<g id="a_node2"><a xlink:title=" ">
<polygon fill="none" stroke="#bfbfbf" points="113.3,-0.5 113.3,-19.5 166.3,-19.5 166.3,-0.5 113.3,-0.5"/>
<text text-anchor="middle" x="139.8" y="-7.5" font-family="Helvetica,sans-Serif" font-size="10.00">stdint.h</text>
</a>
</g>
</g>
<!-- Node1&#45;&gt;Node2 -->
<g id="edge1" class="edge">
<title>Node1&#45;&gt;Node2</title>
<path fill="none" stroke="midnightblue" d="M49.79,-112.38C20.27,-99.66 -12.07,-79.41 4.8,-56 26.99,-25.21 71.17,-15.17 102.95,-12.06"/>
<polygon fill="midnightblue" stroke="midnightblue" points="103.51,-15.53 113.2,-11.25 102.96,-8.55 103.51,-15.53"/>
</g>
<!-- Node3 -->
<g id="node3" class="node">
<title>Node3</title>
<g id="a_node3"><a xlink:title=" ">
<polygon fill="none" stroke="#bfbfbf" points="14.3,-56.5 14.3,-75.5 67.3,-75.5 67.3,-56.5 14.3,-56.5"/>
<text text-anchor="middle" x="40.8" y="-63.5" font-family="Helvetica,sans-Serif" font-size="10.00">string.h</text>
</a>
</g>
</g>
<!-- Node1&#45;&gt;Node3 -->
<g id="edge2" class="edge">
<title>Node1&#45;&gt;Node3</title>
<path fill="none" stroke="midnightblue" d="M78.19,-112.4C71.07,-103.75 61.92,-92.64 54.45,-83.58"/>
<polygon fill="midnightblue" stroke="midnightblue" points="56.99,-81.15 47.93,-75.66 51.58,-85.6 56.99,-81.15"/>
</g>
<!-- Node4 -->
<g id="node4" class="node">
<title>Node4</title>
<g id="a_node4"><a xlink:href="sha256_8h.html" target="_top" xlink:title=" ">
<polygon fill="none" stroke="black" points="85.8,-56.5 85.8,-75.5 193.8,-75.5 193.8,-56.5 85.8,-56.5"/>
<text text-anchor="middle" x="139.8" y="-63.5" font-family="Helvetica,sans-Serif" font-size="10.00">../sha256/sha256.h</text>
</a>
</g>
</g>
<!-- Node1&#45;&gt;Node4 -->
<g id="edge3" class="edge">
<title>Node1&#45;&gt;Node4</title>
<path fill="none" stroke="midnightblue" d="M101.65,-112.4C108.91,-103.75 118.25,-92.64 125.87,-83.58"/>
<polygon fill="midnightblue" stroke="midnightblue" points="128.77,-85.57 132.52,-75.66 123.41,-81.06 128.77,-85.57"/>
</g>
<!-- Node5 -->
<g id="node5" class="node">
<title>Node5</title>
<g id="a_node5"><a xlink:href="entropium_8h.html" target="_top" xlink:title="This file contains the declarations for the pseudo&#45;random&#45;number generator.">
<polygon fill="none" stroke="black" points="211.8,-56.5 211.8,-75.5 287.8,-75.5 287.8,-56.5 211.8,-56.5"/>
<text text-anchor="middle" x="249.8" y="-63.5" font-family="Helvetica,sans-Serif" font-size="10.00">entropium.h</text>
</a>
</g>
</g>
<!-- Node1&#45;&gt;Node5 -->
<g id="edge5" class="edge">
<title>Node1&#45;&gt;Node5</title>
<path fill="none" stroke="midnightblue" d="M127.72,-112.4C154.92,-102.28 191.2,-88.79 217.13,-79.15"/>
<polygon fill="midnightblue" stroke="midnightblue" points="218.36,-82.42 226.52,-75.66 215.93,-75.86 218.36,-82.42"/>
</g>
<!-- Node4&#45;&gt;Node2 -->
<g id="edge4" class="edge">
<title>Node4&#45;&gt;Node2</title>
<path fill="none" stroke="midnightblue" d="M139.8,-56.08C139.8,-49.01 139.8,-38.86 139.8,-29.99"/>
<polygon fill="midnightblue" stroke="midnightblue" points="143.3,-29.75 139.8,-19.75 136.3,-29.75 143.3,-29.75"/>
</g>
<!-- Node5&#45;&gt;Node2 -->
<g id="edge6" class="edge">
<title>Node5&#45;&gt;Node2</title>
<path fill="none" stroke="midnightblue" d="M232.13,-56.32C214.41,-47.62 186.9,-34.12 166.51,-24.11"/>
<polygon fill="midnightblue" stroke="midnightblue" points="167.95,-20.92 157.43,-19.65 164.86,-27.2 167.95,-20.92"/>
</g>
</g>
</svg>
