<?xml version="1.0" encoding="UTF-8" standalone="no"?>
<!DOCTYPE svg PUBLIC "-//W3C//DTD SVG 1.1//EN"
 "http://www.w3.org/Graphics/SVG/1.1/DTD/svg11.dtd">
<!-- Generated by graphviz version 2.43.0 (0)
 -->
<!-- Title: entropium_getRandomBlock Pages: 1 -->
<svg width="443pt" height="66pt"
 viewBox="0.00 0.00 443.00 66.00" xmlns="http://www.w3.org/2000/svg" xmlns:xlink="http://www.w3.org/1999/xlink">
<g id="graph0" class="graph" transform="scale(1 1) rotate(0) translate(4 62)">
<title>entropium_getRandomBlock</title>
<!-- Node1 -->
<g id="node1" class="node">
<title>Node1</title>
<g id="a_node1"><a xlink:title="generate a fixed size block of random data">
<polygon fill="#bfbfbf" stroke="black" points="0,-19.5 0,-38.5 155,-38.5 155,-19.5 0,-19.5"/>
<text text-anchor="middle" x="77.5" y="-26.5" font-family="Helvetica,sans-Serif" font-size="10.00">entropium_getRandomBlock</text>
</a>
</g>
</g>
<!-- Node2 -->
<g id="node2" class="node">
<title>Node2</title>
<g id="a_node2"><a xlink:href="sha256_8c.html#ae436d07e4a6f3e8eeab60a8c2a0cf472" target="_top" xlink:title="sh256_init initialises a sha256 context for hashing. sh256_init c initialises the given sha256 contex...">
<polygon fill="none" stroke="black" points="205.5,-38.5 205.5,-57.5 278.5,-57.5 278.5,-38.5 205.5,-38.5"/>
<text text-anchor="middle" x="242" y="-45.5" font-family="Helvetica,sans-Serif" font-size="10.00">sha256_init</text>
</a>
</g>
</g>
<!-- Node1&#45;&gt;Node2 -->
<g id="edge1" class="edge">
<title>Node1&#45;&gt;Node2</title>
<path fill="none" stroke="midnightblue" d="M155.47,-38C169.05,-39.59 182.8,-41.2 195.18,-42.64"/>
<polygon fill="midnightblue" stroke="midnightblue" points="194.89,-46.13 205.23,-43.82 195.7,-39.18 194.89,-46.13"/>
</g>
<!-- Node3 -->
<g id="node3" class="node">
<title>Node3</title>
<g id="a_node3"><a xlink:href="sha256_8c.html#a5837f901296887d759c2698866748d25" target="_top" xlink:title="function to process the last block being hashed">
<polygon fill="none" stroke="black" points="191,-0.5 191,-19.5 293,-19.5 293,-0.5 191,-0.5"/>
<text text-anchor="middle" x="242" y="-7.5" font-family="Helvetica,sans-Serif" font-size="10.00">sha256_lastBlock</text>
</a>
</g>
</g>
<!-- Node1&#45;&gt;Node3 -->
<g id="edge2" class="edge">
<title>Node1&#45;&gt;Node3</title>
<path fill="none" stroke="midnightblue" d="M155.47,-20C163.89,-19.02 172.37,-18.02 180.55,-17.07"/>
<polygon fill="midnightblue" stroke="midnightblue" points="181.2,-20.52 190.73,-15.88 180.39,-13.56 181.2,-20.52"/>
</g>
<!-- Node4 -->
<g id="node4" class="node">
<title>Node4</title>
<g id="a_node4"><a xlink:href="sha256_8c.html#a33a5ddbbf0f2cb105a2191a72624138d" target="_top" xlink:title="update the context with a given block">
<polygon fill="none" stroke="black" points="329,-0.5 329,-19.5 435,-19.5 435,-0.5 329,-0.5"/>
<text text-anchor="middle" x="382" y="-7.5" font-family="Helvetica,sans-Serif" font-size="10.00">sha256_nextBlock</text>
</a>
</g>
</g>
<!-- Node3&#45;&gt;Node4 -->
<g id="edge3" class="edge">
<title>Node3&#45;&gt;Node4</title>
<path fill="none" stroke="midnightblue" d="M293.21,-10C301.43,-10 310.03,-10 318.5,-10"/>
<polygon fill="midnightblue" stroke="midnightblue" points="318.74,-13.5 328.74,-10 318.74,-6.5 318.74,-13.5"/>
</g>
</g>
</svg>
