<?xml version="1.0" encoding="UTF-8" standalone="no"?>
<!DOCTYPE svg PUBLIC "-//W3C//DTD SVG 1.1//EN"
 "http://www.w3.org/Graphics/SVG/1.1/DTD/svg11.dtd">
<!-- Generated by graphviz version 2.43.0 (0)
 -->
<!-- Title: entropium_addEntropy Pages: 1 -->
<svg width="416pt" height="85pt"
 viewBox="0.00 0.00 416.00 85.00" xmlns="http://www.w3.org/2000/svg" xmlns:xlink="http://www.w3.org/1999/xlink">
<g id="graph0" class="graph" transform="scale(1 1) rotate(0) translate(4 81)">
<title>entropium_addEntropy</title>
<!-- Node1 -->
<g id="node1" class="node">
<title>Node1</title>
<g id="a_node1"><a xlink:title="add entropy to the prng">
<polygon fill="#bfbfbf" stroke="black" points="0,-19.5 0,-38.5 128,-38.5 128,-19.5 0,-19.5"/>
<text text-anchor="middle" x="64" y="-26.5" font-family="Helvetica,sans-Serif" font-size="10.00">entropium_addEntropy</text>
</a>
</g>
</g>
<!-- Node2 -->
<g id="node2" class="node">
<title>Node2</title>
<g id="a_node2"><a xlink:href="sha256_8c.html#ae436d07e4a6f3e8eeab60a8c2a0cf472" target="_top" xlink:title="sh256_init initialises a sha256 context for hashing. sh256_init c initialises the given sha256 contex...">
<polygon fill="none" stroke="black" points="178.5,-57.5 178.5,-76.5 251.5,-76.5 251.5,-57.5 178.5,-57.5"/>
<text text-anchor="middle" x="215" y="-64.5" font-family="Helvetica,sans-Serif" font-size="10.00">sha256_init</text>
</a>
</g>
</g>
<!-- Node1&#45;&gt;Node2 -->
<g id="edge1" class="edge">
<title>Node1&#45;&gt;Node2</title>
<path fill="none" stroke="midnightblue" d="M102.6,-38.59C122.69,-43.71 147.58,-50.06 168.73,-55.45"/>
<polygon fill="midnightblue" stroke="midnightblue" points="167.91,-58.86 178.46,-57.94 169.64,-52.07 167.91,-58.86"/>
</g>
<!-- Node3 -->
<g id="node3" class="node">
<title>Node3</title>
<g id="a_node3"><a xlink:href="sha256_8c.html#a5837f901296887d759c2698866748d25" target="_top" xlink:title="function to process the last block being hashed">
<polygon fill="none" stroke="black" points="164,-19.5 164,-38.5 266,-38.5 266,-19.5 164,-19.5"/>
<text text-anchor="middle" x="215" y="-26.5" font-family="Helvetica,sans-Serif" font-size="10.00">sha256_lastBlock</text>
</a>
</g>
</g>
<!-- Node1&#45;&gt;Node3 -->
<g id="edge2" class="edge">
<title>Node1&#45;&gt;Node3</title>
<path fill="none" stroke="midnightblue" d="M128.19,-29C136.65,-29 145.31,-29 153.71,-29"/>
<polygon fill="midnightblue" stroke="midnightblue" points="153.81,-32.5 163.81,-29 153.81,-25.5 153.81,-32.5"/>
</g>
<!-- Node4 -->
<g id="node4" class="node">
<title>Node4</title>
<g id="a_node4"><a xlink:href="sha256_8c.html#a33a5ddbbf0f2cb105a2191a72624138d" target="_top" xlink:title="update the context with a given block">
<polygon fill="none" stroke="black" points="302,-0.5 302,-19.5 408,-19.5 408,-0.5 302,-0.5"/>
<text text-anchor="middle" x="355" y="-7.5" font-family="Helvetica,sans-Serif" font-size="10.00">sha256_nextBlock</text>
</a>
</g>
</g>
<!-- Node1&#45;&gt;Node4 -->
<g id="edge4" class="edge">
<title>Node1&#45;&gt;Node4</title>
<path fill="none" stroke="midnightblue" d="M105.21,-19.49C123.1,-15.72 144.49,-11.86 164,-10 206.47,-5.96 254.53,-6 291.68,-7.03"/>
<polygon fill="midnightblue" stroke="midnightblue" points="291.76,-10.54 301.86,-7.35 291.97,-3.54 291.76,-10.54"/>
</g>
<!-- Node3&#45;&gt;Node4 -->
<g id="edge3" class="edge">
<title>Node3&#45;&gt;Node4</title>
<path fill="none" stroke="midnightblue" d="M266.21,-22.09C274.52,-20.94 283.22,-19.74 291.78,-18.57"/>
<polygon fill="midnightblue" stroke="midnightblue" points="292.31,-22.03 301.74,-17.2 291.35,-15.09 292.31,-22.03"/>
</g>
</g>
</svg>
