<?xml version="1.0" encoding="UTF-8" standalone="no"?>
<!DOCTYPE svg PUBLIC "-//W3C//DTD SVG 1.1//EN"
 "http://www.w3.org/Graphics/SVG/1.1/DTD/svg11.dtd">
<!-- Generated by graphviz version 2.43.0 (0)
 -->
<!-- Title: cryptolib/sha1/sha1.c Pages: 1 -->
<svg width="295pt" height="140pt"
 viewBox="0.00 0.00 295.00 140.00" xmlns="http://www.w3.org/2000/svg" xmlns:xlink="http://www.w3.org/1999/xlink">
<g id="graph0" class="graph" transform="scale(1 1) rotate(0) translate(4 136)">
<title>cryptolib/sha1/sha1.c</title>
<!-- Node1 -->
<g id="node1" class="node">
<title>Node1</title>
<g id="a_node1"><a xlink:title="SHA&#45;1 implementation.">
<polygon fill="#bfbfbf" stroke="black" points="62.5,-112.5 62.5,-131.5 182.5,-131.5 182.5,-112.5 62.5,-112.5"/>
<text text-anchor="middle" x="122.5" y="-119.5" font-family="Helvetica,sans-Serif" font-size="10.00">cryptolib/sha1/sha1.c</text>
</a>
</g>
</g>
<!-- Node2 -->
<g id="node2" class="node">
<title>Node2</title>
<g id="a_node2"><a xlink:title=" ">
<polygon fill="none" stroke="#bfbfbf" points="0,-56.5 0,-75.5 53,-75.5 53,-56.5 0,-56.5"/>
<text text-anchor="middle" x="26.5" y="-63.5" font-family="Helvetica,sans-Serif" font-size="10.00">string.h</text>
</a>
</g>
</g>
<!-- Node1&#45;&gt;Node2 -->
<g id="edge1" class="edge">
<title>Node1&#45;&gt;Node2</title>
<path fill="none" stroke="midnightblue" d="M107.08,-112.32C91.96,-103.82 68.68,-90.73 51.03,-80.8"/>
<polygon fill="midnightblue" stroke="midnightblue" points="52.32,-77.51 41.89,-75.65 48.89,-83.61 52.32,-77.51"/>
</g>
<!-- Node3 -->
<g id="node3" class="node">
<title>Node3</title>
<g id="a_node3"><a xlink:title=" ">
<polygon fill="none" stroke="#bfbfbf" points="145,-0.5 145,-19.5 198,-19.5 198,-0.5 145,-0.5"/>
<text text-anchor="middle" x="171.5" y="-7.5" font-family="Helvetica,sans-Serif" font-size="10.00">stdint.h</text>
</a>
</g>
</g>
<!-- Node1&#45;&gt;Node3 -->
<g id="edge2" class="edge">
<title>Node1&#45;&gt;Node3</title>
<path fill="none" stroke="midnightblue" d="M115.1,-112.18C105.24,-99.29 90.16,-74.79 100.5,-56 108.39,-41.66 122.99,-31.25 136.9,-24.08"/>
<polygon fill="midnightblue" stroke="midnightblue" points="138.79,-27.06 146.34,-19.62 135.8,-20.73 138.79,-27.06"/>
</g>
<!-- Node4 -->
<g id="node4" class="node">
<title>Node4</title>
<g id="a_node4"><a xlink:href="debug_8h_source.html" target="_top" xlink:title=" ">
<polygon fill="none" stroke="black" points="109.5,-56.5 109.5,-75.5 219.5,-75.5 219.5,-56.5 109.5,-56.5"/>
<text text-anchor="middle" x="164.5" y="-63.5" font-family="Helvetica,sans-Serif" font-size="10.00">../common/debug.h</text>
</a>
</g>
</g>
<!-- Node1&#45;&gt;Node4 -->
<g id="edge3" class="edge">
<title>Node1&#45;&gt;Node4</title>
<path fill="none" stroke="midnightblue" d="M129.44,-112.08C135.43,-104.38 144.25,-93.03 151.55,-83.65"/>
<polygon fill="midnightblue" stroke="midnightblue" points="154.32,-85.79 157.69,-75.75 148.79,-81.5 154.32,-85.79"/>
</g>
<!-- Node5 -->
<g id="node5" class="node">
<title>Node5</title>
<g id="a_node5"><a xlink:href="sha1_8h.html" target="_top" xlink:title="SHA&#45;1 declaration.">
<polygon fill="none" stroke="black" points="238,-56.5 238,-75.5 287,-75.5 287,-56.5 238,-56.5"/>
<text text-anchor="middle" x="262.5" y="-63.5" font-family="Helvetica,sans-Serif" font-size="10.00">sha1.h</text>
</a>
</g>
</g>
<!-- Node1&#45;&gt;Node5 -->
<g id="edge4" class="edge">
<title>Node1&#45;&gt;Node5</title>
<path fill="none" stroke="midnightblue" d="M144.68,-112.44C167.93,-103.48 204.65,-89.31 230.92,-79.18"/>
<polygon fill="midnightblue" stroke="midnightblue" points="232.35,-82.38 240.42,-75.52 229.83,-75.85 232.35,-82.38"/>
</g>
<!-- Node5&#45;&gt;Node3 -->
<g id="edge5" class="edge">
<title>Node5&#45;&gt;Node3</title>
<path fill="none" stroke="midnightblue" d="M247.88,-56.32C233.55,-47.82 211.49,-34.73 194.75,-24.8"/>
<polygon fill="midnightblue" stroke="midnightblue" points="196.47,-21.75 186.08,-19.65 192.9,-27.77 196.47,-21.75"/>
</g>
</g>
</svg>
