<?xml version="1.0" encoding="UTF-8" standalone="no"?>
<!DOCTYPE svg PUBLIC "-//W3C//DTD SVG 1.1//EN"
 "http://www.w3.org/Graphics/SVG/1.1/DTD/svg11.dtd">
<!-- Generated by graphviz version 2.43.0 (0)
 -->
<!-- Title: cryptolib/sha256/sha256.c Pages: 1 -->
<svg width="279pt" height="140pt"
 viewBox="0.00 0.00 278.80 140.00" xmlns="http://www.w3.org/2000/svg" xmlns:xlink="http://www.w3.org/1999/xlink">
<g id="graph0" class="graph" transform="scale(1 1) rotate(0) translate(4 136)">
<title>cryptolib/sha256/sha256.c</title>
<!-- Node1 -->
<g id="node1" class="node">
<title>Node1</title>
<g id="a_node1"><a xlink:title="SHA&#45;256 implementation.">
<polygon fill="#bfbfbf" stroke="black" points="17.3,-112.5 17.3,-131.5 161.3,-131.5 161.3,-112.5 17.3,-112.5"/>
<text text-anchor="middle" x="89.3" y="-119.5" font-family="Helvetica,sans-Serif" font-size="10.00">cryptolib/sha256/sha256.c</text>
</a>
</g>
</g>
<!-- Node2 -->
<g id="node2" class="node">
<title>Node2</title>
<g id="a_node2"><a xlink:title=" ">
<polygon fill="none" stroke="#bfbfbf" points="85.8,-0.5 85.8,-19.5 138.8,-19.5 138.8,-0.5 85.8,-0.5"/>
<text text-anchor="middle" x="112.3" y="-7.5" font-family="Helvetica,sans-Serif" font-size="10.00">stdint.h</text>
</a>
</g>
</g>
<!-- Node1&#45;&gt;Node2 -->
<g id="edge1" class="edge">
<title>Node1&#45;&gt;Node2</title>
<path fill="none" stroke="midnightblue" d="M59.93,-112.44C29,-101.85 -13.02,-81.97 4.3,-56 20.07,-32.34 50.89,-21.1 75.58,-15.77"/>
<polygon fill="midnightblue" stroke="midnightblue" points="76.57,-19.15 85.73,-13.83 75.25,-12.27 76.57,-19.15"/>
</g>
<!-- Node3 -->
<g id="node3" class="node">
<title>Node3</title>
<g id="a_node3"><a xlink:title=" ">
<polygon fill="none" stroke="#bfbfbf" points="13.8,-56.5 13.8,-75.5 66.8,-75.5 66.8,-56.5 13.8,-56.5"/>
<text text-anchor="middle" x="40.3" y="-63.5" font-family="Helvetica,sans-Serif" font-size="10.00">string.h</text>
</a>
</g>
</g>
<!-- Node1&#45;&gt;Node3 -->
<g id="edge2" class="edge">
<title>Node1&#45;&gt;Node3</title>
<path fill="none" stroke="midnightblue" d="M81.2,-112.08C74.14,-104.3 63.71,-92.8 55.15,-83.37"/>
<polygon fill="midnightblue" stroke="midnightblue" points="57.55,-80.8 48.24,-75.75 52.36,-85.51 57.55,-80.8"/>
</g>
<!-- Node4 -->
<g id="node4" class="node">
<title>Node4</title>
<g id="a_node4"><a xlink:title=" ">
<polygon fill="none" stroke="#bfbfbf" points="85.3,-56.5 85.3,-75.5 191.3,-75.5 191.3,-56.5 85.3,-56.5"/>
<text text-anchor="middle" x="138.3" y="-63.5" font-family="Helvetica,sans-Serif" font-size="10.00">platform/romem.h</text>
</a>
</g>
</g>
<!-- Node1&#45;&gt;Node4 -->
<g id="edge3" class="edge">
<title>Node1&#45;&gt;Node4</title>
<path fill="none" stroke="midnightblue" d="M97.39,-112.08C104.45,-104.3 114.88,-92.8 123.44,-83.37"/>
<polygon fill="midnightblue" stroke="midnightblue" points="126.23,-85.51 130.36,-75.75 121.04,-80.8 126.23,-85.51"/>
</g>
<!-- Node5 -->
<g id="node5" class="node">
<title>Node5</title>
<g id="a_node5"><a xlink:href="sha256_8h.html" target="_top" xlink:title=" ">
<polygon fill="none" stroke="black" points="209.8,-56.5 209.8,-75.5 270.8,-75.5 270.8,-56.5 209.8,-56.5"/>
<text text-anchor="middle" x="240.3" y="-63.5" font-family="Helvetica,sans-Serif" font-size="10.00">sha256.h</text>
</a>
</g>
</g>
<!-- Node1&#45;&gt;Node5 -->
<g id="edge4" class="edge">
<title>Node1&#45;&gt;Node5</title>
<path fill="none" stroke="midnightblue" d="M113.22,-112.44C138.51,-103.4 178.6,-89.06 206.98,-78.92"/>
<polygon fill="midnightblue" stroke="midnightblue" points="208.24,-82.18 216.48,-75.52 205.89,-75.59 208.24,-82.18"/>
</g>
<!-- Node5&#45;&gt;Node2 -->
<g id="edge5" class="edge">
<title>Node5&#45;&gt;Node2</title>
<path fill="none" stroke="midnightblue" d="M220.01,-56.44C198.95,-47.56 165.78,-33.56 141.81,-23.45"/>
<polygon fill="midnightblue" stroke="midnightblue" points="143.06,-20.18 132.48,-19.52 140.34,-26.63 143.06,-20.18"/>
</g>
</g>
</svg>
