<?xml version="1.0" encoding="UTF-8" standalone="no"?>
<!DOCTYPE svg PUBLIC "-//W3C//DTD SVG 1.1//EN"
 "http://www.w3.org/Graphics/SVG/1.1/DTD/svg11.dtd">
<!-- Generated by graphviz version 2.43.0 (0)
 -->
<!-- Title: sha256 Pages: 1 -->
<svg width="340pt" height="124pt"
 viewBox="0.00 0.00 340.00 123.89" xmlns="http://www.w3.org/2000/svg" xmlns:xlink="http://www.w3.org/1999/xlink">
<g id="graph0" class="graph" transform="scale(1 1) rotate(0) translate(4 119.89)">
<title>sha256</title>
<!-- Node1 -->
<g id="node1" class="node">
<title>Node1</title>
<g id="a_node1"><a xlink:title="simple SHA&#45;256 hashing function for direct hashing">
<polygon fill="#bfbfbf" stroke="black" points="0,-39.39 0,-58.39 52,-58.39 52,-39.39 0,-39.39"/>
<text text-anchor="middle" x="26" y="-46.39" font-family="Helvetica,sans-Serif" font-size="10.00">sha256</text>
</a>
</g>
</g>
<!-- Node2 -->
<g id="node2" class="node">
<title>Node2</title>
<g id="a_node2"><a xlink:href="sha256_8c.html#a1c649a4ecf963e6cd65dbb44419414e8" target="_top" xlink:title="convert the hash state into the hash value This function reads the context and writes the hash value ...">
<polygon fill="none" stroke="black" points="88.5,-96.39 88.5,-115.39 189.5,-115.39 189.5,-96.39 88.5,-96.39"/>
<text text-anchor="middle" x="139" y="-103.39" font-family="Helvetica,sans-Serif" font-size="10.00">sha256_ctx2hash</text>
</a>
</g>
</g>
<!-- Node1&#45;&gt;Node2 -->
<g id="edge1" class="edge">
<title>Node1&#45;&gt;Node2</title>
<path fill="none" stroke="midnightblue" d="M40.61,-58.44C52.69,-66.66 71.01,-78.47 88,-86.89 92.04,-88.9 96.35,-90.82 100.67,-92.63"/>
<polygon fill="midnightblue" stroke="midnightblue" points="99.5,-95.93 110.08,-96.38 102.09,-89.43 99.5,-95.93"/>
</g>
<!-- Node3 -->
<g id="node3" class="node">
<title>Node3</title>
<g id="a_node3"><a xlink:href="sha256_8c.html#ae436d07e4a6f3e8eeab60a8c2a0cf472" target="_top" xlink:title="sh256_init initialises a sha256 context for hashing. sh256_init c initialises the given sha256 contex...">
<polygon fill="none" stroke="black" points="102.5,-58.39 102.5,-77.39 175.5,-77.39 175.5,-58.39 102.5,-58.39"/>
<text text-anchor="middle" x="139" y="-65.39" font-family="Helvetica,sans-Serif" font-size="10.00">sha256_init</text>
</a>
</g>
</g>
<!-- Node1&#45;&gt;Node3 -->
<g id="edge2" class="edge">
<title>Node1&#45;&gt;Node3</title>
<path fill="none" stroke="midnightblue" d="M52.19,-53.21C64.01,-55.23 78.49,-57.71 92.15,-60.05"/>
<polygon fill="midnightblue" stroke="midnightblue" points="91.95,-63.56 102.39,-61.8 93.13,-56.66 91.95,-63.56"/>
</g>
<!-- Node4 -->
<g id="node4" class="node">
<title>Node4</title>
<g id="a_node4"><a xlink:href="sha256_8c.html#a5837f901296887d759c2698866748d25" target="_top" xlink:title="function to process the last block being hashed">
<polygon fill="none" stroke="black" points="88,-20.39 88,-39.39 190,-39.39 190,-20.39 88,-20.39"/>
<text text-anchor="middle" x="139" y="-27.39" font-family="Helvetica,sans-Serif" font-size="10.00">sha256_lastBlock</text>
</a>
</g>
</g>
<!-- Node1&#45;&gt;Node4 -->
<g id="edge3" class="edge">
<title>Node1&#45;&gt;Node4</title>
<path fill="none" stroke="midnightblue" d="M52.19,-44.58C59.99,-43.25 68.93,-41.72 78.04,-40.16"/>
<polygon fill="midnightblue" stroke="midnightblue" points="78.68,-43.6 87.95,-38.46 77.5,-36.7 78.68,-43.6"/>
</g>
<!-- Node5 -->
<g id="node5" class="node">
<title>Node5</title>
<g id="a_node5"><a xlink:href="sha256_8c.html#a33a5ddbbf0f2cb105a2191a72624138d" target="_top" xlink:title="update the context with a given block">
<polygon fill="none" stroke="black" points="226,-1.39 226,-20.39 332,-20.39 332,-1.39 226,-1.39"/>
<text text-anchor="middle" x="279" y="-8.39" font-family="Helvetica,sans-Serif" font-size="10.00">sha256_nextBlock</text>
</a>
</g>
</g>
<!-- Node1&#45;&gt;Node5 -->
<g id="edge5" class="edge">
<title>Node1&#45;&gt;Node5</title>
<path fill="none" stroke="midnightblue" d="M38.2,-39.19C49.78,-29.86 68.81,-16.38 88,-10.89 129.31,0.92 177.77,0.71 215.41,-2.34"/>
<polygon fill="midnightblue" stroke="midnightblue" points="215.45,-5.86 225.72,-3.27 216.08,1.11 215.45,-5.86"/>
</g>
<!-- Node4&#45;&gt;Node5 -->
<g id="edge4" class="edge">
<title>Node4&#45;&gt;Node5</title>
<path fill="none" stroke="midnightblue" d="M190.21,-22.98C198.52,-21.84 207.22,-20.64 215.78,-19.46"/>
<polygon fill="midnightblue" stroke="midnightblue" points="216.31,-22.92 225.74,-18.09 215.35,-15.99 216.31,-22.92"/>
</g>
</g>
</svg>
