<?xml version="1.0" encoding="UTF-8" standalone="no"?>
<!DOCTYPE svg PUBLIC "-//W3C//DTD SVG 1.1//EN"
 "http://www.w3.org/Graphics/SVG/1.1/DTD/svg11.dtd">
<!-- Generated by graphviz version 2.43.0 (0)
 -->
<!-- Title: sha256_nextBlock Pages: 1 -->
<svg width="630pt" height="104pt"
 viewBox="0.00 0.00 630.00 104.00" xmlns="http://www.w3.org/2000/svg" xmlns:xlink="http://www.w3.org/1999/xlink">
<g id="graph0" class="graph" transform="scale(1 1) rotate(0) translate(4 100)">
<title>sha256_nextBlock</title>
<!-- Node1 -->
<g id="node1" class="node">
<title>Node1</title>
<g id="a_node1"><a xlink:title="update the context with a given block">
<polygon fill="#bfbfbf" stroke="black" points="516,-38.5 516,-57.5 622,-57.5 622,-38.5 516,-38.5"/>
<text text-anchor="middle" x="569" y="-45.5" font-family="Helvetica,sans-Serif" font-size="10.00">sha256_nextBlock</text>
</a>
</g>
</g>
<!-- Node2 -->
<g id="node2" class="node">
<title>Node2</title>
<g id="a_node2"><a xlink:href="entropium_8c.html#aceb838321ef373e5a1a4a8ed53a0cc8e" target="_top" xlink:title="add entropy to the prng">
<polygon fill="none" stroke="black" points="200.5,-76.5 200.5,-95.5 328.5,-95.5 328.5,-76.5 200.5,-76.5"/>
<text text-anchor="middle" x="264.5" y="-83.5" font-family="Helvetica,sans-Serif" font-size="10.00">entropium_addEntropy</text>
</a>
</g>
</g>
<!-- Node1&#45;&gt;Node2 -->
<g id="edge1" class="edge">
<title>Node1&#45;&gt;Node2</title>
<path fill="none" stroke="midnightblue" d="M518.89,-59.73C506.27,-62.43 492.68,-65.08 480,-67 429.36,-74.68 371.49,-79.58 328.63,-82.48"/>
<polygon fill="midnightblue" stroke="midnightblue" points="519.75,-63.13 528.77,-57.56 518.25,-56.29 519.75,-63.13"/>
</g>
<!-- Node3 -->
<g id="node3" class="node">
<title>Node3</title>
<g id="a_node3"><a xlink:href="sha256_8c.html#a84fa1efd3a46c31896dced1f226d3f25" target="_top" xlink:title="simple SHA&#45;256 hashing function for direct hashing">
<polygon fill="none" stroke="black" points="238.5,-0.5 238.5,-19.5 290.5,-19.5 290.5,-0.5 238.5,-0.5"/>
<text text-anchor="middle" x="264.5" y="-7.5" font-family="Helvetica,sans-Serif" font-size="10.00">sha256</text>
</a>
</g>
</g>
<!-- Node1&#45;&gt;Node3 -->
<g id="edge2" class="edge">
<title>Node1&#45;&gt;Node3</title>
<path fill="none" stroke="midnightblue" d="M518.89,-36.27C506.27,-33.57 492.68,-30.92 480,-29 411.99,-18.69 330.93,-13.38 290.72,-11.22"/>
<polygon fill="midnightblue" stroke="midnightblue" points="518.25,-39.71 528.77,-38.44 519.75,-32.87 518.25,-39.71"/>
</g>
<!-- Node4 -->
<g id="node4" class="node">
<title>Node4</title>
<g id="a_node4"><a xlink:href="sha256_8c.html#a5837f901296887d759c2698866748d25" target="_top" xlink:title="function to process the last block being hashed">
<polygon fill="none" stroke="black" points="378,-38.5 378,-57.5 480,-57.5 480,-38.5 378,-38.5"/>
<text text-anchor="middle" x="429" y="-45.5" font-family="Helvetica,sans-Serif" font-size="10.00">sha256_lastBlock</text>
</a>
</g>
</g>
<!-- Node1&#45;&gt;Node4 -->
<g id="edge3" class="edge">
<title>Node1&#45;&gt;Node4</title>
<path fill="none" stroke="midnightblue" d="M505.63,-48C497.19,-48 488.62,-48 480.42,-48"/>
<polygon fill="midnightblue" stroke="midnightblue" points="505.83,-51.5 515.83,-48 505.83,-44.5 505.83,-51.5"/>
</g>
<!-- Node4&#45;&gt;Node2 -->
<g id="edge4" class="edge">
<title>Node4&#45;&gt;Node2</title>
<path fill="none" stroke="midnightblue" d="M377.13,-59.9C354.29,-65.24 327.7,-71.45 306.21,-76.48"/>
<polygon fill="midnightblue" stroke="midnightblue" points="378.05,-63.27 386.99,-57.59 376.46,-56.46 378.05,-63.27"/>
</g>
<!-- Node4&#45;&gt;Node3 -->
<g id="edge7" class="edge">
<title>Node4&#45;&gt;Node3</title>
<path fill="none" stroke="midnightblue" d="M377.11,-36.1C348.39,-29.38 313.76,-21.29 290.77,-15.91"/>
<polygon fill="midnightblue" stroke="midnightblue" points="376.46,-39.54 386.99,-38.41 378.05,-32.73 376.46,-39.54"/>
</g>
<!-- Node5 -->
<g id="node5" class="node">
<title>Node5</title>
<g id="a_node5"><a xlink:href="entropium_8c.html#a95d14d8c2bb18d26216b82f467eefb03" target="_top" xlink:title="generate a fixed size block of random data">
<polygon fill="none" stroke="black" points="187,-38.5 187,-57.5 342,-57.5 342,-38.5 187,-38.5"/>
<text text-anchor="middle" x="264.5" y="-45.5" font-family="Helvetica,sans-Serif" font-size="10.00">entropium_getRandomBlock</text>
</a>
</g>
</g>
<!-- Node4&#45;&gt;Node5 -->
<g id="edge5" class="edge">
<title>Node4&#45;&gt;Node5</title>
<path fill="none" stroke="midnightblue" d="M367.84,-48C359.42,-48 350.68,-48 342.01,-48"/>
<polygon fill="midnightblue" stroke="midnightblue" points="367.92,-51.5 377.92,-48 367.92,-44.5 367.92,-51.5"/>
</g>
<!-- Node6 -->
<g id="node6" class="node">
<title>Node6</title>
<g id="a_node6"><a xlink:href="entropium_8c.html#aa1d70e6b1140fe37cd20d2aab88fdcf8" target="_top" xlink:title="get a single byte of random data">
<polygon fill="none" stroke="black" points="0,-38.5 0,-57.5 151,-57.5 151,-38.5 0,-38.5"/>
<text text-anchor="middle" x="75.5" y="-45.5" font-family="Helvetica,sans-Serif" font-size="10.00">entropium_getRandomByte</text>
</a>
</g>
</g>
<!-- Node5&#45;&gt;Node6 -->
<g id="edge6" class="edge">
<title>Node5&#45;&gt;Node6</title>
<path fill="none" stroke="midnightblue" d="M176.87,-48C168.28,-48 159.62,-48 151.17,-48"/>
<polygon fill="midnightblue" stroke="midnightblue" points="176.9,-51.5 186.9,-48 176.9,-44.5 176.9,-51.5"/>
</g>
</g>
</svg>
